<?xml version="1.0" standalone="no"?>
<!DOCTYPE svg PUBLIC "-//W3C//DTD SVG 1.1//EN" "http://www.w3.org/Graphics/SVG/1.1/DTD/svg11.dtd" >
<!--
2013-9-30: Created.
-->
<svg>
<metadata>
Created by iconfont
</metadata>
<defs>

<font id="eosfont" horiz-adv-x="1024" >
  <font-face
    font-family="eosfont"
    font-weight="500"
    font-stretch="normal"
    units-per-em="1024"
    ascent="896"
    descent="-128"
  />
    <missing-glyph />
    
    <glyph glyph-name="safe" unicode="&#59181;" d="M510.4 767.2c75.2-54.4 176.8-91.2 304-109.6v-371.2c0-52-23.2-100.8-70.4-149.6-51.2-52-128.8-101.6-230.4-148C312 88 210.4 188 210.4 285.6v368c98.4 9.6 199.2 47.2 300 113.6m3.2 100l-20.8-14.4c-112.8-80.8-224-121.6-331.2-121.6h-32v-445.6c0-136.8 120.8-260.8 368-378.4l12.8-6.4 13.6 5.6c244.8 105.6 369.6 232.8 369.6 379.2V728l-28 3.2c-148.8 16.8-260.8 56.8-332.8 120l-19.2 16zM360.8 424c-12 12.8-32 14.4-44.8 2.4-12.8-12-14.4-32-2.4-44.8l120.8-136.8c12.8-14.4 30.4-21.6 48-21.6 19.2 0 37.6 8.8 49.6 23.2L727.2 488c11.2 13.6 8.8 33.6-4.8 44.8-13.6 11.2-33.6 8.8-44.8-4.8L481.6 287.2 360.8 424z"  horiz-adv-x="1024" />

    
    <glyph glyph-name="freeship" unicode="&#59180;" d="M512 779.2c217.6 0 395.2-177.6 395.2-395.2S729.6-11.2 512-11.2 116.8 166.4 116.8 384 294.4 779.2 512 779.2m0 88C245.6 867.2 28.8 650.4 28.8 384s216-483.2 483.2-483.2 483.2 216 483.2 483.2C994.4 650.4 778.4 866.4 512 867.2zM689.6 429.6c0 0.8 1.6 5.6 9.6 33.6 11.2 36.8 20 67.2 24.8 88 6.4 20 6.4 33.6-0.8 43.2-6.4 9.6-20 12.8-37.6 11.2H599.2c-20 3.2-32.8 0.8-40.8-7.2-7.2-8.8-9.6-21.6-6.4-33.6v-398.4c0-7.2 3.2-20.8 26.4-23.2 12.8 0 23.2 10.4 24.8 23.2V548c0 7.2 3.2 8.8 5.6 9.6h56c2.4 0 4.8-0.8 6.4-2.4 1.6-3.2 1.6-6.4 0.8-9.6-7.2-33.6-19.2-66.4-32.8-98.4-6.4-21.6-7.2-27.2-5.6-30.4 4-8 7.2-16.8 12-24 25.6-33.6 40-73.6 41.6-116 1.6-6.4 0-14.4-4.8-20-6.4-6.4-20-8-41.6-6.4-16 1.6-29.6-9.6-31.2-25.6 0-16.8 9.6-25.6 27.2-25.6 38.4-0.8 66.4 6.4 83.2 22.4 12 12.8 19.2 29.6 17.6 46.4-5.6 68.8-20 114.4-41.6 139.2-8 17.6-7.2 20.8-6.4 22.4zM520 541.6c-7.2 6.4-18.4 10.4-28.8 8.8h-60v52c-1.6 9.6-6.4 20-28 22.4-12 0-22.4-9.6-22.4-21.6V550.4h-57.6c-10.4 1.6-20.8-2.4-28.8-8.8-7.2-8.8-10.4-21.6-8-33.6V248c-2.4-11.2 0.8-23.2 7.2-32.8 6.4-6.4 16-9.6 25.6-9.6H488c26.4 0 40.8 13.6 40.8 38.4V507.2c2.4 12-1.6 24-8.8 34.4z m-40.8-176.8v-96.8c0-4-0.8-6.4-2.4-9.6-2.4-1.6-4.8-1.6-6.4-0.8H432V364.8h47.2z m0 129.6V416H432V499.2h37.6c9.6 0 9.6-3.2 9.6-4.8zM380.8 364.8v-107.2h-33.6c-3.2 0-6.4 0.8-8 2.4-1.6 2.4-1.6 4.8-0.8 6.4V364.8h42.4z m-44 128c0 1.6 0 3.2 0.8 4 0.8 0.8 3.2 2.4 10.4 2.4h32.8v-84h-44v77.6z"  horiz-adv-x="1024" />

    
    <glyph glyph-name="fast" unicode="&#59178;" d="M288.8 646.4c-12.8-12.8-12.8-32.8 0-45.6L489.6 400 416 326.4c-12.8-12.8-12.8-32.8 0-45.6s32.8-12.8 45.6 0l73.6 73.6 41.6-41.6c12.8-12.8 32.8-12.8 45.6 0 12.8 12.8 12.8 32.8 0 44.8L580 400l41.6 41.6c12.8 12.8 12.8 32.8 0 45.6s-32.8 12.8-45.6 0l-41.6-41.6-200.8 200.8c-12 12.8-32.8 12.8-44.8 0zM704-12h-60c41.6 47.2 89.6 104.8 89.6 159.2 0 28-9.6 52.8-27.2 69.6-38.4 36.8-98.4 36-136-1.6-17.6-17.6-27.2-41.6-27.2-67.2 0-17.6 14.4-32 32-32s32 14.4 32 32 14.4 32 32 32c8 0 16-3.2 22.4-8.8 4.8-4.8 8-13.6 8-24 0-32.8-48.8-88-80.8-124.8-16.8-18.4-31.2-35.2-40-48.8-9.6-14.4-5.6-34.4 8.8-44 5.6-3.2 11.2-5.6 17.6-5.6h128c17.6 0 32 14.4 31.2 32.8 0.8 16.8-12.8 31.2-30.4 31.2zM960 52v160c0 17.6-14.4 32-32 32h-32c-12 0-23.2-7.2-28.8-17.6l-96-192c-8-16-1.6-35.2 14.4-43.2 4.8-2.4 9.6-3.2 14.4-3.2h96v-32c0-17.6 14.4-32 32-32s32 14.4 32 32v32c17.6 0 32 14.4 32 32s-14.4 32-32 32z m-64 0h-44l44 88.8v-88.8zM512-6.4c-52.8 0-106.4 10.4-156 32.8-96 41.6-168.8 118.4-207.2 215.2s-36 203.2 5.6 298.4c86.4 197.6 316.8 288 513.6 201.6 96-41.6 168.8-118.4 207.2-215.2 32.8-82.4 36-171.2 10.4-254.4h92.8c23.2 95.2 16 194.4-20 286.4C912 677.6 821.6 772 704 823.2 461.6 929.6 178.4 818.4 72 576c-26.4-61.6-40-126.4-40-192 0-59.2 11.2-118.4 33.6-175.2C112 89.6 202.4-4.8 320-56c61.6-27.2 127.2-40 192-40v89.6z"  horiz-adv-x="1024" />

    
    <glyph glyph-name="authentic" unicode="&#59179;" d="M512 864c65.6 0 130.4-13.6 192-40 242.4-106.4 353.6-389.6 247.2-632-51.2-117.6-145.6-208-264.8-254.4-118.4-47.2-248.8-44.8-366.4 6.4-22.4 9.6-32.8 36.8-23.2 59.2 9.6 22.4 36.8 32.8 59.2 23.2 95.2-41.6 201.6-44 298.4-5.6 96.8 38.4 173.6 111.2 215.2 207.2 86.4 196.8-4 427.2-201.6 513.6-95.2 41.6-201.6 44-298.4 5.6S196 636 154.4 540c-60.8-138.4-35.2-301.6 65.6-415.2 16.8-18.4 14.4-47.2-4-63.2-18.4-16.8-47.2-14.4-63.2 4C29.6 204.8-2.4 405.6 72 576c51.2 117.6 145.6 208 264.8 254.4C393.6 852.8 452.8 864 512 864zM320.8 531.2c-18.4 0-28 9.6-29.6 29.6 1.6 18.4 11.2 28 29.6 29.6h378.4c16.8-1.6 27.2-11.2 29.6-29.6-2.4-20-12.8-29.6-29.6-29.6H559.2v-104.8h136c16.8-1.6 27.2-12 29.6-31.2-2.4-20-12.8-29.6-29.6-29.6h-136v-128h149.6c18.4-1.6 28.8-10.4 31.2-28 0-20-8.8-30.4-28-31.2H309.6c-16.8 1.6-26.4 12-28 31.2 1.6 16.8 10.4 26.4 28 28h39.2V448c0 20 9.6 31.2 29.6 33.6 20-2.4 30.4-13.6 31.2-33.6v-211.2H496V531.2H320.8z"  horiz-adv-x="1024" />

    
    <glyph glyph-name="gold_fill" unicode="&#59175;" d="M684.8 864c-136.8 0-248-39.2-248-88v-147.2c0-2.4 0.8-5.6 1.6-8 12-42.4 118.4-76 247.2-76 128.8 0 235.2 33.6 247.2 76 0.8 2.4 1.6 5.6 1.6 8V776c-1.6 48.8-112.8 88-249.6 88z m204-99.2c-10.4-8-26.4-15.2-44.8-20.8-43.2-14.4-99.2-21.6-159.2-21.6-60 0-116 8-159.2 21.6-19.2 6.4-34.4 13.6-44.8 20.8-8 5.6-10.4 10.4-11.2 12 0.8 1.6 3.2 5.6 11.2 12 10.4 8 26.4 15.2 44.8 20.8C568.8 824 624.8 831.2 684.8 831.2c60 0 116-8 159.2-21.6 19.2-6.4 34.4-13.6 44.8-20.8 8-5.6 10.4-10.4 11.2-12-0.8-1.6-3.2-6.4-11.2-12zM797.6 536.8c-33.6-6.4-72-9.6-112.8-9.6s-79.2 3.2-112.8 9.6c-80 14.4-135.2 38.4-135.2 72.8V552c-29.6 4.8-62.4 7.2-97.6 7.2-136.8 0-248-39.2-248-88v-147.2c0-2.4 0.8-5.6 1.6-8 12-42.4 118.4-76 247.2-76 34.4 0 67.2 2.4 97.6 6.4l14.4 2.4c7.2 1.6 14.4 2.4 20.8 4 63.2 13.6 107.2 36.8 115.2 63.2 0.8 2.4 1.6 5.6 1.6 8V304c0-27.2-36-48-92-63.2-8-2.4-16.8-4-25.6-6.4-5.6-0.8-11.2-2.4-17.6-3.2-4.8-0.8-10.4-1.6-16-2.4-29.6-4.8-62.4-7.2-97.6-7.2-40.8 0-79.2 3.2-112.8 9.6-80 14.4-135.2 38.4-135.2 72.8v-147.2c0-2.4 0.8-5.6 1.6-8 12-42.4 118.4-76 247.2-76 48.8 0 94.4 4.8 132.8 12.8 63.2 13.6 106.4 36.8 114.4 63.2 0.8 2.4 1.6 5.6 1.6 8V136c0-27.2-35.2-48-91.2-63.2-13.6-3.2-28-7.2-44-9.6-33.6-6.4-72-9.6-112.8-9.6s-79.2 3.2-112.8 9.6c-80 14.4-135.2 38.4-135.2 72.8v-147.2c0-2.4 0.8-5.6 1.6-8 12-42.4 118.4-76 247.2-76 128.8 0 235.2 33.6 247.2 76 0.8 2.4 1.6 5.6 1.6 8v61.6c29.6-4 62.4-6.4 97.6-6.4 128.8 0 235.2 33.6 247.2 76 0.8 2.4 1.6 5.6 1.6 8V275.2c0-34.4-55.2-58.4-135.2-72.8-33.6-6.4-72-9.6-112.8-9.6-34.4 0-67.2 2.4-97.6 7.2v16.8c29.6-4 62.4-6.4 97.6-6.4 128.8 0 235.2 33.6 247.2 76 0.8 2.4 1.6 5.6 1.6 8V442.4c0-34.4-55.2-58.4-135.2-72.8-33.6-6.4-72-9.6-112.8-9.6-34.4 0-67.2 2.4-97.6 7.2V384c29.6-4 62.4-6.4 97.6-6.4 128.8 0 235.2 33.6 247.2 76 0.8 2.4 1.6 5.6 1.6 8V609.6c-7.2-34.4-61.6-58.4-142.4-72.8z m-254.4-77.6c-10.4-8-26.4-15.2-44.8-20.8-12-4-25.6-8-40-10.4-5.6-0.8-10.4-2.4-16-3.2-1.6 0-4-0.8-5.6-0.8-30.4-4.8-63.2-7.2-97.6-7.2-60 0-116 8-159.2 21.6-19.2 6.4-34.4 13.6-44.8 20.8-8 5.6-10.4 10.4-11.2 12 0.8 1.6 3.2 5.6 11.2 12 10.4 8 26.4 15.2 44.8 20.8 43.2 14.4 99.2 21.6 159.2 21.6 34.4 0 67.2-2.4 97.6-7.2 22.4-4 43.2-8.8 61.6-14.4 19.2-6.4 34.4-13.6 44.8-20.8 8-5.6 10.4-10.4 11.2-12 0-1.6-3.2-6.4-11.2-12z"  horiz-adv-x="1024" />

    
    <glyph glyph-name="gold" unicode="&#59177;" d="M56 156c2.4-10.4 8.8-20.8 18.4-30.4L56 137.6v-100 118.4z m544-105.6s20-3.2 20.8-3.2l-18.4 1.6-2.4-10.4v12z m93.6-7.2h2.4-2.4z m-121.6 76c17.6 13.6 27.2 28.8 27.2 44.8v-28.8l-27.2-16z m27.2 142.4l-25.6-15.2c13.6 11.2 23.2 23.2 25.6 36v-88.8 68z m333.6-22.4c19.2 12.8 31.2 27.2 34.4 42.4v-22.4l-34.4-20zM56 263.2V426.4c0 19.2 13.6 35.2 30.4 47.2-19.2-14.4-29.6-30.4-29.6-47.2 0-15.2 8.8-29.6 24-42.4L56 400v-108.8c0-16.8 10.4-32.8 29.6-46.4L56 263.2zM932.8 384c20 13.6 32 28 34.4 44v-24l-34.4-20z m-355.2 0.8c11.2 9.6 18.4 19.2 21.6 30.4v-17.6l-21.6-12.8z m11.2 72.8c-12.8 16-36 29.6-63.2 40 20-6.4 41.6-11.2 65.6-15.2l-16 1.6 13.6-26.4z m-88 48.8c-23.2 7.2-48.8 12.8-72.8 16-0.8 0-2.4 0.8-3.2 0.8v47.2c4.8-24.8 32.8-47.2 76-64z m435.2 23.2c18.4 13.6 29.6 28 32 44v-25.6l-32-18.4z m3.2 154.4c18.4 13.6 28.8 29.6 28.8 45.6v-28.8l-28.8-16.8z m-514.4 18.4v20c2.4-12.8 11.2-24.8 24.8-35.2l-24.8 15.2zM696 856c-75.2 0-146.4-11.2-200-32-61.6-23.2-95.2-56.8-95.2-94.4v-180.8c-23.2 2.4-48 4-72.8 4-75.2 0-146.4-11.2-200-31.2-62.4-23.2-96-56.8-96-95.2v-388.8c0-37.6 33.6-71.2 95.2-94.4 53.6-20 125.6-31.2 200-31.2s146.4 11.2 200 31.2 85.6 48 93.6 80c24.8-2.4 49.6-4 74.4-4 75.2 0 146.4 11.2 200 31.2 61.6 23.2 95.2 56.8 95.2 94.4v3.2c0.8 0.8 1.6 581.6 1.6 581.6 0 37.6-33.6 71.2-95.2 94.4-53.6 20.8-125.6 32-200.8 32z m0-204.8c-151.2 0-248 47.2-248 79.2s96.8 79.2 248 79.2 248-47.2 248-79.2-96.8-79.2-248-79.2z m0-46.4c74.4 0 146.4 11.2 200 31.2 18.4 7.2 34.4 15.2 48 23.2v-80.8c0-32.8-96.8-79.2-248-79.2s-248 47.2-248 79.2V659.2c13.6-8.8 29.6-16.8 48-23.2 53.6-20 125.6-31.2 200-31.2z m248.8-97.6c-0.8-0.8-0.8-72.8-0.8-72.8 0-32.8-96.8-79.2-248-79.2-24.8 0-49.6 0.8-72.8 4v68c0 10.4-2.4 20-7.2 29.6 26.4-2.4 52.8-4 80.8-4 75.2 0 146.4 11.2 200 31.2 18.4 7.2 34.4 15.2 48 23.2z m-616-160c-151.2 0-248 47.2-248 79.2s95.2 80 247.2 80c33.6 0 64-2.4 92-6.4 0.8 0 1.6-0.8 2.4-0.8 96-13.6 154.4-47.2 154.4-72.8 0-32.8-96.8-79.2-248-79.2z m615.2 15.2v-72c0-32.8-96.8-79.2-248-79.2-24.8 0-49.6 0.8-72.8 4V312c24-2.4 48-4 72.8-4 75.2 0 146.4 11.2 200 31.2 18.4 7.2 34.4 15.2 48 23.2z m-616-60.8c74.4 0 146.4 11.2 200 31.2 18.4 7.2 34.4 15.2 48 23.2v-64.8c0-32.8-96.8-79.2-248-79.2s-248 47.2-248 79.2v64.8c13.6-8.8 29.6-16.8 48-23.2 53.6-20 125.6-31.2 200-31.2z m-0.8-136c74.4 0 146.4 11.2 200 31.2 18.4 7.2 34.4 15.2 48 23.2v-56c0-32.8-96.8-79.2-248-79.2s-248 47.2-248 79.2v56c13.6-8.8 29.6-16.8 48-23.2 53.6-20 125.6-31.2 200-31.2z m368.8-1.6c75.2 0 146.4 11.2 200 31.2 18.4 7.2 34.4 15.2 48 23.2v-73.6c0-31.2-96-77.6-248-77.6-24.8 0-49.6 0.8-72.8 4V168c24-2.4 48-4 72.8-4z m-368-124.8c74.4 0 146.4 11.2 200 31.2 18.4 7.2 34.4 15.2 48 23.2v-56c0-32-96.8-79.2-248-79.2s-248 47.2-248 79.2v56c13.6-8.8 29.6-16.8 48-23.2 53.6-20 125.6-31.2 200-31.2z"  horiz-adv-x="1024" />

    
    <glyph glyph-name="financial" unicode="&#59176;" d="M574.4 816c0.8 0 4 0 9.6-2.4 5.6-1.6 8.8-4 15.2-9.6 11.2-8.8 28.8-23.2 57.6-25.6-6.4-7.2-12-13.6-17.6-20.8l-1.6-2.4c-7.2-8-16.8-17.6-24.8-25.6H400.8c-9.6 8.8-21.6 20.8-28.8 30.4-4.8 6.4-10.4 12-16 17.6 1.6 0 3.2 0.8 4.8 0.8 24 4.8 39.2 14.4 50.4 23.2 5.6 4 10.4 8 17.6 11.2 0.8 0 2.4 0.8 6.4 0.8 2.4 0 4 0 5.6-0.8 16.8-15.2 39.2-26.4 43.2-28.8l12.8-6.4 14.4 1.6c15.2 1.6 31.2 10.4 51.2 28 6.4 6.4 10.4 8.8 12 8.8m0 48c-16.8 0-28.8-8-42.4-19.2-18.4-16-25.6-16.8-25.6-16.8S484 840 472 852c-7.2 7.2-21.6 11.2-36 11.2-10.4 0-20.8-2.4-28.8-6.4-26.4-14.4-32-25.6-54.4-29.6-2.4 0-4-0.8-6.4-0.8-18.4 0-43.2 12-62.4 12-6.4 0-12.8-1.6-17.6-4.8-22.4-15.2-9.6-40.8 11.2-52.8 19.2-12.8 40.8-28.8 57.6-49.6 16.8-20.8 47.2-48 47.2-48H632s26.4 24 42.4 42.4c15.2 18.4 28.8 36 59.2 52.8 24.8 13.6 37.6 48 5.6 59.2-5.6 1.6-10.4 2.4-15.2 2.4-18.4 0-31.2-12.8-56.8-12.8h-1.6c-30.4 0-35.2 22.4-66.4 32.8-9.6 3.2-17.6 4-24.8 4zM616 561.6c24.8-27.2 70.4-73.6 135.2-120.8 102.4-74.4 139.2-159.2 118.4-267.2-11.2-56-45.6-104.8-100.8-140.8-64.8-42.4-154.4-64.8-259.2-64.8-103.2 0-192 25.6-257.6 73.6-51.2 37.6-87.2 88-97.6 140-26.4 128.8 64 220 120.8 263.2 58.4 44 103.2 90.4 127.2 117.6H616m29.6 63.2H372s-52-67.2-136-130.4C140 422.4 62.4 307.2 91.2 168c26.4-123.2 161.6-264 418.4-264 248.8 0 394.4 116 422.4 257.6 34.4 172.8-64 273.6-143.2 331.2-93.6 68-143.2 132.8-143.2 132.8zM635.2 180c24 0 33.6-11.2 34.4-24.8 0.8-13.6-11.2-28-27.2-28H543.2v-29.6c0-12.8-13.6-26.4-32.8-26.4s-33.6 8-35.2 27.2c-0.8 8.8 0 28.8 0 28.8H375.2c-16 0-27.2 16-27.2 28 0.8 12 12.8 24 27.2 24h100.8v60s-81.6-0.8-96.8-0.8c-15.2 0-26.4 9.6-26.4 20.8 0 12 12 33.6 26.4 33.6h96.8v21.6s-77.6 71.2-86.4 79.2-20 25.6-5.6 39.2c13.6 13.6 39.2 4 51.2-6.4 13.6-11.2 75.2-66.4 75.2-66.4s72 58.4 87.2 68.8c14.4 10.4 35.2 11.2 46.4-0.8s6.4-23.2-11.2-37.6C614.4 376.8 544 313.6 544 313.6v-19.2h93.6c20.8-0.8 32.8-20.8 32.8-32-0.8-12.8-8.8-23.2-32-23.2H544.8l-0.8-59.2h91.2z"  horiz-adv-x="1024" />

    
    <glyph glyph-name="financial_fill" unicode="&#59174;" d="M274.4 830.4c21.6 16 61.6-11.2 86.4-6.4 22.4 4 28 15.2 54.4 29.6 20.8 11.2 52.8 7.2 64.8-4.8s34.4-23.2 34.4-23.2 7.2 0.8 25.6 16.8c19.2 16 36 24.8 67.2 14.4 32-10.4 36-33.6 68-32.8 32 0.8 44 20 72 10.4 32-11.2 19.2-45.6-5.6-59.2-30.4-16.8-44-34.4-59.2-52.8C666.4 704 640 680 640 680H390.4s-30.4 27.2-47.2 48c-16.8 20.8-38.4 36.8-57.6 49.6-20.8 12-33.6 37.6-11.2 52.8zM796.8 489.6c-93.6 68-143.2 132.8-143.2 132.8H380s-52-67.2-136-130.4C148 419.2 70.4 304 99.2 164.8c26.4-123.2 161.6-264 418.4-264 248.8 0 394.4 116 422.4 257.6 34.4 172.8-64 273.6-143.2 331.2zM643.2 176.8c24 0 33.6-11.2 34.4-24.8 0.8-13.6-11.2-28-27.2-28H551.2v-29.6c0-12.8-13.6-26.4-32.8-26.4-19.2 0-33.6 8-35.2 27.2-0.8 8.8 0 28.8 0 28.8H383.2c-16 0-27.2 16-27.2 28 0.8 12 12.8 24 27.2 24h100.8v60s-81.6-0.8-96.8-0.8c-15.2 0-26.4 9.6-26.4 20.8 0 12 12 33.6 26.4 33.6h96.8v21.6s-77.6 71.2-86.4 79.2c-8.8 8-20 25.6-5.6 39.2 13.6 13.6 39.2 4 51.2-6.4 13.6-11.2 75.2-66.4 75.2-66.4s72 58.4 87.2 68.8c14.4 10.4 35.2 11.2 46.4-0.8 11.2-12 6.4-23.2-11.2-37.6-18.4-13.6-88.8-76.8-88.8-76.8v-19.2h93.6c20.8-0.8 32.8-20.8 32.8-32-0.8-12.8-8.8-23.2-32-23.2H552.8l-0.8-59.2h91.2z"  horiz-adv-x="1024" />

    
    <glyph glyph-name="reward_fill" unicode="&#59173;" d="M512 864C247.2 864 32 648.8 32 384s214.4-480 480-480 480 214.4 480 480S776.8 864 512 864z m209.6-286.4L618.4 476h44.8c24.8 0 44-20 44-44s-19.2-44.8-44-44.8H556v-56.8h107.2c24.8 0 44-20 44-44 0-24.8-20-44-44-44H556V120c0-24.8-20-44-44-44-24.8 0-44 20-44 44V243.2H360.8c-24.8 0-44 20-44 44 0 24.8 20 44 44 44h107.2v56.8H360.8c-24.8 0-44 20-44 44s20 44 44 44h44.8L302.4 577.6c-16.8 16.8-16.8 45.6 0 63.2 16.8 16.8 45.6 16.8 63.2 0L512 494.4l146.4 146.4c16.8 16.8 45.6 16.8 63.2 0 16.8-16.8 16.8-45.6 0-63.2z"  horiz-adv-x="1024" />

    
    <glyph glyph-name="reward" unicode="&#59172;" d="M498.4 428.8c-11.2 0-23.2 4-32 12.8L344 565.6c-17.6 17.6-17.6 46.4 0 64s46.4 17.6 63.2 0l123.2-123.2c17.6-17.6 17.6-46.4 0-64-8.8-8.8-20-13.6-32-13.6zM525.6 428.8c-11.2 0-23.2 4-32 12.8-17.6 17.6-17.6 46.4 0 64l123.2 123.2c17.6 17.6 46.4 17.6 63.2 0 17.6-17.6 17.6-46.4 0-64L557.6 442.4c-8.8-8.8-20.8-13.6-32-13.6zM672.8 370.4H351.2c-24.8 0-44.8 20-44.8 44.8 0 24.8 20 44.8 44.8 44.8h321.6c24.8 0 44.8-20 44.8-44.8 0-24.8-20-44.8-44.8-44.8zM672.8 220.8H351.2c-24.8 0-44.8 20-44.8 44.8 0 24.8 20 44.8 44.8 44.8h321.6c24.8 0 44.8-20 44.8-44.8 0-24.8-20-44.8-44.8-44.8zM512 96c-24.8 0-44.8 20-44.8 44.8V411.2c0 24.8 20 44.8 44.8 44.8 24.8 0 44.8-20 44.8-44.8v-270.4c0-24.8-20-44.8-44.8-44.8zM512-96c-65.6 0-130.4 13.6-192 40C77.6 50.4-33.6 333.6 72.8 576c51.2 117.6 145.6 208 264.8 254.4C456 877.6 586.4 875.2 704 824c22.4-9.6 32.8-36.8 23.2-59.2-9.6-22.4-36.8-32.8-59.2-23.2-95.2 41.6-201.6 44-298.4 5.6-96.8-38.4-173.6-111.2-215.2-207.2-86.4-196.8 4-427.2 201.6-513.6 95.2-41.6 201.6-44 298.4-5.6 96.8 38.4 173.6 111.2 215.2 207.2 60.8 138.4 35.2 301.6-65.6 415.2-16.8 18.4-14.4 47.2 4 63.2 18.4 16.8 47.2 14.4 63.2-4C994.4 563.2 1026.4 362.4 952 192c-51.2-117.6-145.6-208-264.8-254.4-56.8-22.4-116-33.6-175.2-33.6z"  horiz-adv-x="1024" />

    
    <glyph glyph-name="daifahuo" unicode="&#59170;" d="M836.8-56H187.2C124-56 72 0.8 72 71.2V696.8C72 767.2 124 824 187.2 824h649.6c63.2 0 115.2-56.8 115.2-127.2v-625.6c0-70.4-52-127.2-115.2-127.2zM202.4 737.6c-27.2 0-49.6-24.8-49.6-55.2v-596.8c0-30.4 22.4-55.2 49.6-55.2h620c27.2 0 49.6 24.8 49.6 55.2V682.4c0 30.4-22.4 55.2-49.6 55.2H202.4zM658.4 332.8c-4 0-8 0.8-12 2.4L512 392.8l-134.4-57.6c-9.6-4-20.8-3.2-29.6 2.4s-14.4 16-14.4 26.4V740.8c0 17.6 14.4 31.2 31.2 31.2 17.6 0 31.2-14.4 31.2-31.2v-329.6l104 44.8c8 3.2 16.8 3.2 24.8 0l103.2-44V740.8c0 17.6 14.4 31.2 31.2 31.2 17.6 0 31.2-14.4 31.2-31.2v-376.8c0-10.4-5.6-20.8-14.4-26.4-5.6-3.2-11.2-4.8-17.6-4.8z m107.2-225.6H660.8c-17.6 0-31.2 14.4-31.2 31.2s14.4 31.2 31.2 31.2h104.8c17.6 0 31.2-14.4 31.2-31.2s-13.6-31.2-31.2-31.2z"  horiz-adv-x="1024" />

    
    <glyph glyph-name="daifahuo_fill" unicode="&#59171;" d="M499.2 460c9.6 4 20.8 4 31.2 0l128.8-55.2V816c0 2.4 0 5.6 0.8 8H369.6c0.8-2.4 0.8-4.8 0.8-8v-411.2l128.8 55.2zM836.8 824H736c0.8-2.4 0.8-4.8 0.8-8v-471.2c0-13.6-6.4-25.6-17.6-32.8-6.4-4-14.4-6.4-21.6-6.4-5.6 0-10.4 0.8-15.2 3.2l-168 72-168-72c-12-5.6-26.4-4-36.8 3.2-11.2 7.2-17.6 20-17.6 32.8V816c0 2.4 0 5.6 0.8 8H187.2C124 824 72 767.2 72 696.8v-625.6c0-70.4 52-127.2 115.2-127.2h649.6c63.2 0 115.2 56.8 115.2 127.2V696.8c0 70.4-52 127.2-115.2 127.2z m-5.6-776H700.8c-21.6 0-39.2 17.6-39.2 39.2s17.6 39.2 39.2 39.2H832c21.6 0 39.2-17.6 39.2-39.2-0.8-21.6-18.4-39.2-40-39.2z"  horiz-adv-x="1024" />

    
    <glyph glyph-name="yuncang" unicode="&#59169;" d="M188.8 180.79999999999995c-6.4 0-12-5.6-12-11.2 0-6.4 4.8-11.2 12-11.2s12 5.6 12 11.2c-0.8 6.4-5.6 11.2-12 11.2zM836 438.4h6.4v12.8c0 172-139.2 312-312 312-162.4 0-295.2-124-310.4-282.4C112 452.8 32.8 355.20000000000005 32.8 239.20000000000005c0-137.6 112-249.6 249.6-249.6H768c124.8 3.2 224.8 104.8 224.8 230.4-1.6 101.6-66.4 187.2-156.8 218.4z m-74.4-386.4h-480c-103.2 0-187.2 84-187.2 187.2s84 187.2 187.2 187.2 187.2-84 187.2-187.2h0.8c-0.8-2.4-0.8-4-0.8-6.4 0-16.8 14.4-31.2 31.2-31.2 16.8 0 31.2 14.4 31.2 31.2 0 2.4 0 4-0.8 6.4h0.8c0 136.8-110.4 247.2-246.4 249.6 18.4 120 120.8 212 246.4 212 137.6 0 249.6-112 249.6-249.6v-0.8c-6.4 0.8-12 0.8-18.4 0.8-21.6 0-42.4-3.2-62.4-8.8 0-1.6 0.8-2.4 0.8-4h-0.8c-16.8 0-31.2-14.4-31.2-31.2 0-16.8 14.4-31.2 31.2-31.2 7.2 0 13.6 2.4 19.2 6.4 13.6 4 28 5.6 43.2 5.6 92.8 0 168-75.2 168-168-0.8-92.8-76-168-168.8-168zM312.8 372c-76.8 0-140-62.4-139.2-139.2 0-6.4 4.8-11.2 12-11.2 6.4 0 12 5.6 12 11.2 0 64 52 116 116 116 6.4 0 12 5.6 12 11.2s-6.4 12-12.8 12z"  horiz-adv-x="1024" />

    
    <glyph glyph-name="alipay_fill" unicode="&#59166;" d="M248 323.2c-11.2-8.8-23.2-22.4-27.2-39.2-4.8-23.2-0.8-52 21.6-74.4 27.2-27.2 68-35.2 85.6-36 48-3.2 99.2 20.8 138.4 48 15.2 10.4 40.8 32 65.6 65.6-56 28.8-124.8 60.8-199.2 57.6-37.6-3.2-64.8-11.2-84.8-21.6z m705.6-126.4c24.8 57.6 38.4 120.8 38.4 187.2 0 264.8-215.2 480-480 480S32 648.8 32 384s215.2-480 480-480c160 0 301.6 78.4 388.8 199.2-82.4 40.8-218.4 108-302.4 148.8-40-45.6-99.2-91.2-165.6-111.2-41.6-12.8-80-17.6-119.2-8.8-39.2 8-68 26.4-84.8 44.8-8.8 9.6-18.4 21.6-25.6 35.2 0.8-1.6 0.8-3.2 0.8-3.2s-4 7.2-7.2 18.4c-1.6 5.6-2.4 11.2-3.2 16.8 0 4-0.8 8 0 12 0 7.2 0 14.4 1.6 22.4 4 19.2 12 40.8 32.8 61.6 45.6 44.8 108 47.2 139.2 47.2 47.2 0 129.6-20.8 198.4-45.6 19.2 40.8 31.2 84.8 39.2 113.6H318.4v31.2h148v62.4H287.2v31.2h178.4v62.4c0 8.8 1.6 15.2 15.2 15.2h69.6v-77.6h194.4v-31.2H551.2v-62.4h155.2s-16-87.2-64.8-172.8c108.8-37.6 261.6-97.6 312-116.8z"  horiz-adv-x="1024" />

    
    <glyph glyph-name="alipay" unicode="&#59167;" d="M512-16c-220.8 0-400 179.2-400 400s179.2 400 400 400 400-179.2 400-400-179.2-400-400-400M512 864C247.2 864 32 648.8 32 384s215.2-480 480-480 480 215.2 480 480S776.8 864 512 864M584.8 344.8c44 79.2 60 154.4 60 154.4H497.6v53.6h173.6v24H498.4V660h-79.2v-83.2H261.6v-24h157.6v-55.2h-136v-24h272.8c0-4.8 0-4.8-4.8-8 0-28-20.8-68-36-99.2-201.6 79.2-260 31.2-276 24-134.4-94.4-8-212.8 12.8-209.6 141.6-31.2 233.6 28 296.8 102.4 4.8-4.8 8-4.8 12.8-4.8 44-24 252-123.2 252-123.2V273.6c-32 3.2-146.4 43.2-228.8 71.2z m-102.4-36c-99.2-126.4-217.6-86.4-236.8-79.2-47.2 12.8-63.2 99.2-4.8 126.4 99.2 31.2 186.4-4.8 248.8-36-4-6.4-7.2-11.2-7.2-11.2z"  horiz-adv-x="1024" />

    
    <glyph glyph-name="alipay-square" unicode="&#59168;" d="M836 860c84 0 152-68.8 152-152.8v-494.4s-30.4 4-168 49.6c-38.4 13.6-89.6 32.8-146.4 53.6 34.4 59.2 60.8 128 80 200H565.6v67.2h230.4v38.4H565.6V734.4H472c-16.8 0-16.8-16.8-16.8-16.8v-97.6h-232v-38.4h232v-64.8h-192v-38.4h373.6c-13.6-48-32-92-53.6-132-120 40-249.6 72.8-331.2 51.2-51.2-13.6-85.6-36-104.8-59.2C56.8 230.4 121.6 64 310.4 64c112 0 220.8 63.2 304.8 166.4 125.6-60.8 373.6-164 373.6-164v-5.6c0-84-68.8-152.8-152-152.8h-648c-84 0-152 68.8-152 152.8V707.2c0 84 68.8 152.8 152 152.8h647.2zM284.8 345.6c86.4 9.6 167.2-24.8 263.2-73.6-69.6-88.8-154.4-144.8-239.2-144.8-147.2 0-190.4 117.6-116.8 183.2 25.6 21.6 68.8 33.6 92.8 35.2z"  horiz-adv-x="1024" />

    
    <glyph glyph-name="WeChat-square" unicode="&#59165;" d="M255.2 559.2c0-10.4 4-20.8 12-28 7.2-7.2 17.6-12 28-12 10.4 0 20.8 4 28 12 7.2 7.2 12 17.6 12 28 0 10.4-4 20.8-12 28-7.2 7.2-17.6 12-28 12-10.4 0-20.8-4-28-12s-12-17.6-12-28z m312-207.2c0-8 3.2-16 9.6-22.4 5.6-5.6 13.6-9.6 22.4-9.6 8 0 16 3.2 22.4 9.6 5.6 5.6 9.6 13.6 9.6 22.4 0 8-3.2 16-9.6 22.4-5.6 5.6-13.6 9.6-22.4 9.6-8 0-16-3.2-22.4-9.6-5.6-6.4-9.6-14.4-9.6-22.4zM460 559.2c0-10.4 4-20.8 12-28 7.2-7.2 17.6-12 28-12 10.4 0 20.8 4 28 12s12 17.6 12 28c0 10.4-4 20.8-12 28-7.2 7.2-17.6 12-28 12-10.4 0-20.8-4-28-12s-12-17.6-12-28z m373.6 300.8H190.4c-84.8 0-154.4-68.8-154.4-154.4v-642.4c0-85.6 68.8-154.4 154.4-154.4h643.2c84.8 0 154.4 68.8 154.4 154.4V705.6c0 85.6-69.6 154.4-154.4 154.4zM392.8 222.4c-36 0-64.8 7.2-100.8 14.4l-100.8-50.4 28.8 87.2c-72 50.4-115.2 115.2-115.2 195.2 0 137.6 130.4 245.6 288.8 245.6C536 714.4 660 628 684.8 512c-9.6 0.8-18.4 1.6-28 1.6-136.8 0-245.6-102.4-245.6-228.8 0-20.8 3.2-41.6 8.8-60.8-8.8-1.6-17.6-1.6-27.2-1.6z m425.6-100.8l21.6-72-79.2 43.2c-28.8-7.2-57.6-14.4-86.4-14.4-137.6 0-245.6 93.6-245.6 209.6 0 115.2 108 209.6 245.6 209.6 129.6 0 244.8-94.4 244.8-209.6 0.8-65.6-42.4-123.2-100.8-166.4zM724.8 352c0-8 3.2-16 9.6-22.4 5.6-5.6 13.6-9.6 22.4-9.6 8 0 16 3.2 22.4 9.6 5.6 5.6 9.6 13.6 9.6 22.4 0 8-3.2 16-9.6 22.4-5.6 5.6-13.6 9.6-22.4 9.6-8 0-16-3.2-22.4-9.6-6.4-6.4-9.6-14.4-9.6-22.4z"  horiz-adv-x="1024" />

    
    <glyph glyph-name="activity_fill" unicode="&#58948;" d="M850.4 807.2H700V826.4c0 20.8-16.8 37.6-37.6 37.6s-37.6-16.8-37.6-37.6v-19.2H399.2V826.4c0 20.8-16.8 37.6-37.6 37.6s-37.6-16.8-37.6-37.6v-19.2H172.8c-41.6 0-75.2-35.2-75.2-78.4v-109.6h828V728.8c0.8 43.2-33.6 78.4-75.2 78.4M662.4 393.6c20.8 0 37.6-16.8 37.6-37.6s-16.8-37.6-37.6-37.6H361.6c-20.8 0-37.6 16.8-37.6 37.6s16.8 37.6 37.6 37.6h300.8zM324 167.2c0 20.8 16.8 37.6 37.6 37.6h300.8c20.8 0 37.6-16.8 37.6-37.6s-16.8-37.6-37.6-37.6H361.6c-20.8 0-37.6 16.8-37.6 37.6zM888.8 544H97.6v-561.6c0-43.2 33.6-78.4 75.2-78.4h678.4c41.6 0 75.2 35.2 75.2 78.4V544h-37.6z"  horiz-adv-x="1024" />

    
    <glyph glyph-name="activity" unicode="&#58949;" d="M851.2-17.6c0-2.4-0.8-3.2 0-3.2l-676-0.8s-1.6 1.6-1.6 4V544h677.6v-561.6zM172.8 728.8c0 2.4 0.8 3.2 0 3.2h150.4v-19.2c0-20.8 16.8-37.6 37.6-37.6s37.6 16.8 37.6 37.6v19.2H624v-19.2c0-20.8 16.8-37.6 37.6-37.6s37.6 16.8 37.6 37.6v19.2h149.6c0.8-0.8 0.8-2.4 0.8-3.2v-109.6H172.8V728.8z m677.6 78.4H700V826.4c0 20.8-16.8 37.6-37.6 37.6s-37.6-16.8-37.6-37.6v-19.2H399.2V826.4c0 20.8-16.8 37.6-37.6 37.6s-37.6-16.8-37.6-37.6v-19.2H172.8c-41.6 0-75.2-35.2-75.2-78.4v-746.4c0-43.2 33.6-78.4 75.2-78.4h678.4c41.6 0 75.2 35.2 75.2 78.4V728.8c0 43.2-34.4 78.4-76 78.4zM361.6 318.4h300.8c20.8 0 37.6 16.8 37.6 37.6s-16.8 37.6-37.6 37.6H361.6c-20.8 0-37.6-16.8-37.6-37.6s16.8-37.6 37.6-37.6m0-188.8h300.8c20.8 0 37.6 16.8 37.6 37.6s-16.8 37.6-37.6 37.6H361.6c-20.8 0-37.6-16.8-37.6-37.6s16.8-37.6 37.6-37.6"  horiz-adv-x="1024" />

    
    <glyph glyph-name="addition_fill" unicode="&#58950;" d="M727.2 355.2H552v-175.2c0-22.4-17.6-40-40-40s-40 17.6-40 40V355.2H296.8c-22.4 0-40 17.6-40 40s17.6 40 40 40H472V610.4c0 22.4 17.6 40 40 40s40-17.6 40-40v-175.2h175.2c22.4 0 40-17.6 40-40s-18.4-40-40-40M512 864C247.2 864 32 648.8 32 384s215.2-480 480-480 480 215.2 480 480S776.8 864 512 864"  horiz-adv-x="1024" />

    
    <glyph glyph-name="addition" unicode="&#58951;" d="M512-16c-220.8 0-400 179.2-400 400s179.2 400 400 400 400-179.2 400-400-179.2-400-400-400M512 864C247.2 864 32 648.8 32 384s215.2-480 480-480 480 215.2 480 480S776.8 864 512 864m215.2-428.8H552V610.4c0 22.4-17.6 40-40 40s-40-17.6-40-40v-175.2H296.8c-22.4 0-40-17.6-40-40s17.6-40 40-40H472v-175.2c0-22.4 17.6-40 40-40s40 17.6 40 40V355.2h175.2c22.4 0 40 17.6 40 40s-18.4 40-40 40"  horiz-adv-x="1024" />

    
    <glyph glyph-name="addpeople" unicode="&#58952;" d="M272.8 492.8V624c0 77.6 60 140 134.4 140S540.8 701.6 540.8 624v-131.2c0-77.6-60-140-134.4-140S272.8 416 272.8 492.8m220.8-468l-384.8 0.8V155.2c0 5.6 5.6 13.6 10.4 16C121.6 172 288 248 416 248h39.2c21.6 0 38.4 17.6 38.4 40 0 1.6-0.8 2.4-0.8 4 73.6 34.4 124.8 111.2 124.8 200.8V624c0 121.6-94.4 220-211.2 220-116 0-210.4-98.4-210.4-220v-131.2c0-75.2 36-141.6 92-181.6-68-16-133.6-38.4-197.6-66.4C56.8 231.2 32 192.8 32 155.2v-142.4c0-4.8 0.8-8.8 2.4-12.8 10.4-32.8 40-55.2 72.8-55.2h387.2c21.6 0 38.4 17.6 38.4 40s-17.6 40-39.2 40m268-20.8c-84.8 0-153.6 72-153.6 160s68.8 160 153.6 160 153.6-72 153.6-160-68.8-160-153.6-160m0 400c-127.2 0-230.4-108-230.4-240s103.2-240 230.4-240S992 32 992 164s-103.2 240-230.4 240m76-210.4h-48.8v50.4c0 15.2-12 28-27.2 28s-27.2-12.8-27.2-28v-50.4h-50.4c-15.2 0-27.2-12.8-27.2-28s12-28 27.2-28h50.4v-53.6c0-15.2 12-28 27.2-28s27.2 12.8 27.2 28v53.6h48.8c15.2 0 27.2 12.8 27.2 28s-12 28-27.2 28"  horiz-adv-x="1024" />

    
    <glyph glyph-name="addpeople_fill" unicode="&#58953;" d="M520 13.6c-31.2 72-66.4 197.6 4 296.8 1.6 1.6 2.4 2.4 4 3.2 50.4 37.6 82.4 95.2 88 158.4 0.8 7.2 1.6 13.6 1.6 20.8V624c0 121.6-94.4 220-211.2 220S196 745.6 196 624v-131.2c0-75.2 36-141.6 92-181.6-68-16-133.6-38.4-197.6-66.4C56.8 231.2 32 192.8 32 155.2v-142.4c0-4.8 0.8-8.8 2.4-12.8 10.4-32.8 40-55.2 72.8-55.2h387.2c8.8 0 17.6 4 24.8 9.6 8 7.2 13.6 17.6 13.6 30.4 0 0.8-0.8 2.4-0.8 4-3.2 8.8-7.2 16.8-12 24.8m317.6 124h-48.8v-53.6c0-15.2-12-28-27.2-28s-27.2 12.8-27.2 28v53.6h-50.4c-15.2 0-27.2 12.8-27.2 28s12 28 27.2 28h50.4v50.4c0 15.2 12 28 27.2 28s27.2-12.8 27.2-28v-50.4h48.8c15.2 0 27.2-12.8 27.2-28 0-16-12-28-27.2-28m-20 259.2c-18.4 4.8-36.8 7.2-56 7.2-127.2 0-230.4-108-230.4-240s103.2-240 230.4-240c19.2 0 38.4 2.4 56 7.2 100 26.4 174.4 120 174.4 232.8s-74.4 206.4-174.4 232.8"  horiz-adv-x="1024" />

    
    <glyph glyph-name="addressbook_fill" unicode="&#58954;" d="M953.6 482.4H800c-21.6 0-38.4-16.8-38.4-38.4s16.8-38.4 38.4-38.4h153.6c21.6 0 38.4 16.8 38.4 38.4s-16.8 38.4-38.4 38.4m0 153.6H800c-21.6 0-38.4-16.8-38.4-38.4 0-21.6 16.8-38.4 38.4-38.4h153.6c21.6 0 38.4 16.8 38.4 38.4 0 20.8-16.8 38.4-38.4 38.4M800 712.8h153.6c21.6 0 38.4 16.8 38.4 38.4s-16.8 38.4-38.4 38.4H800c-21.6 0-38.4-16.8-38.4-38.4s16.8-38.4 38.4-38.4m16.8-460.8c-6.4 2.4-116.8 51.2-238.4 75.2 14.4 11.2 26.4 24.8 37.6 40 26.4 36 40.8 79.2 40.8 124V616c0 67.2-32 130.4-86.4 170.4-36 26.4-80 40.8-124.8 41.6-116.8 0-211.2-95.2-211.2-212v-125.6c0-68 32-128 82.4-167.2-116-24.8-217.6-69.6-222.4-72C58.4 238.4 32 198.4 32 160.8v-158.4l2.4-6.4c11.2-33.6 42.4-56 76.8-56h687.2c40 0 72.8 29.6 77.6 68l0.8 152c0 18.4-6.4 36.8-16 52.8-11.2 17.6-26.4 32-44 39.2"  horiz-adv-x="1024" />

    
    <glyph glyph-name="addressbook" unicode="&#58955;" d="M953.6 636H800c-21.6 0-38.4-16.8-38.4-38.4 0-21.6 16.8-38.4 38.4-38.4h153.6c21.6 0 38.4 16.8 38.4 38.4 0 20.8-16.8 38.4-38.4 38.4m0-153.6H800c-21.6 0-38.4-16.8-38.4-38.4 0-21.6 16.8-38.4 38.4-38.4h153.6c21.6 0 38.4 16.8 38.4 38.4 0 20.8-16.8 38.4-38.4 38.4M800 712.8h153.6c21.6 0 38.4 16.8 38.4 38.4s-16.8 38.4-38.4 38.4H800c-21.6 0-38.4-16.8-38.4-38.4s16.8-38.4 38.4-38.4m0-695.2H110.4c-0.8 0-0.8 0-1.6 0.8V160.8c0 7.2 7.2 17.6 14.4 20.8 1.6 0.8 188 82.4 331.2 82.4C596.8 264 784 182.4 786.4 180.8c6.4-2.4 13.6-13.6 13.6-20.8v-142.4zM311.2 490.4V616c0 74.4 60 134.4 134.4 134.4S580 690.4 580 616v-125.6c0-74.4-60-134.4-134.4-134.4s-134.4 60.8-134.4 134.4z m505.6-239.2c-6.4 2.4-116.8 51.2-238.4 75.2 49.6 40 77.6 100 77.6 164V616C656 732.8 561.6 828 444.8 828c-116 0-211.2-94.4-211.2-211.2v-125.6c0-68 32-128 82.4-167.2-116-24.8-217.6-69.6-222.4-72C58.4 238.4 32 198.4 32 160v-158.4l2.4-6.4c11.2-33.6 42.4-56 76.8-56h687.2c40 0 72.8 29.6 77.6 68l0.8 152c0 39.2-26.4 78.4-60 92z"  horiz-adv-x="1024" />

    
    <glyph glyph-name="barrage" unicode="&#58956;" d="M232 304h160c22.4 0 40 17.6 40 40s-17.6 40-40 40H232c-22.4 0-40-17.6-40-40s17.6-40 40-40m0-160h160c22.4 0 40 17.6 40 40s-17.6 40-40 40H232c-22.4 0-40-17.6-40-40s17.6-40 40-40m0 320h320c22.4 0 40 17.6 40 40s-17.6 40-40 40H232c-22.4 0-40-17.6-40-40s17.6-40 40-40m680-400H112V704h800v-640z m0 720H112C68 784 32 748.8 32 704v-640c0-44 36-80 80-80h800c44 0 80 36 80 80V704c0 44-36 80-80 80z"  horiz-adv-x="1024" />

    
    <glyph glyph-name="barrage_fill" unicode="&#58957;" d="M552 464H232c-22.4 0-40 17.6-40 40s17.6 40 40 40h320c22.4 0 40-17.6 40-40s-17.6-40-40-40M192 344c0 22.4 17.6 40 40 40h160c22.4 0 40-17.6 40-40s-17.6-40-40-40H232c-22.4 0-40 17.6-40 40m40-120h160c22.4 0 40-17.6 40-40s-17.6-40-40-40H232c-22.4 0-40 17.6-40 40s17.6 40 40 40m680 560H112C68 784 32 748 32 704v-640c0-44 36-80 80-80h800c44 0 80 36 80 80V704c0 44-36 80-80 80"  horiz-adv-x="1024" />

    
    <glyph glyph-name="browse" unicode="&#58958;" d="M906.4 362.4c-0.8-2.4-104.8-264-394.4-264-288 0-389.6 252.8-395.2 267.2-4 8-4 27.2 1.6 38.4 1.6 2.4 117.6 265.6 393.6 265.6 274.4 0 388.8-255.2 394.4-268.8 4.8-8 4.8-27.2 0-38.4m73.6 73.6c-5.6 12.8-139.2 315.2-468 315.2S48.8 448.8 44.8 438.4c-16-32-16.8-77.6-2.4-105.6 1.6-3.2 124.8-316 469.6-316s468.8 313.6 468.8 314.4c15.2 31.2 14.4 77.6-0.8 104.8M593.6 332.8c0-44.8-36.8-81.6-81.6-81.6S430.4 288 430.4 332.8V424.8c0 44.8 36.8 81.6 81.6 81.6s81.6-36.8 81.6-81.6v-92zM512 588c-90.4 0-163.2-73.6-163.2-163.2v-92c0-90.4 72.8-163.2 163.2-163.2 90.4 0 163.2 73.6 163.2 163.2V424.8c0 90.4-72.8 163.2-163.2 163.2z"  horiz-adv-x="1024" />

    
    <glyph glyph-name="browse_fill" unicode="&#58959;" d="M348.8 332.8V424.8c0 90.4 72.8 163.2 163.2 163.2 90.4 0 163.2-73.6 163.2-163.2v-92c0-90.4-72.8-163.2-163.2-163.2-89.6 0-163.2 73.6-163.2 163.2m632 103.2c-2.4 6.4-34.4 76.8-100.8 149.6C804.8 667.2 686.4 752 512 752S219.2 667.2 144 586.4C78.4 512.8 46.4 443.2 44.8 438.4c-16-32-16.8-77.6-2.4-105.6 0.8-1.6 31.2-77.6 102.4-155.2 74.4-80 192-160.8 368-160.8 175.2 0 293.6 81.6 368 160.8 71.2 76.8 101.6 152.8 101.6 152.8 13.6 32 12.8 78.4-1.6 105.6"  horiz-adv-x="1024" />

    
    <glyph glyph-name="brush" unicode="&#58960;" d="M821.6 464L592 693.6l87.2 87.2 229.6-229.6L821.6 464z m-475.2-476L116 218.4l416.8 416.8 229.6-229.6-416-417.6z m-231.2-0.8V101.6l114.4-114.4H115.2zM968 609.6L737.6 840c-15.2 16-36.8 24.8-59.2 24-22.4 0-43.2-8.8-58.4-24.8L57.6 276.8c-18.4-18.4-27.2-44.8-23.2-70.4-0.8-4-2.4-7.2-2.4-11.2v-208.8c0-45.6 36.8-83.2 83.2-83.2h208.8c4 0 7.2 0.8 10.4 2.4 4-0.8 8-0.8 12-0.8 21.6 0 43.2 8 59.2 24.8L968 492c32 32.8 32 84.8 0 117.6z"  horiz-adv-x="1024" />

    
    <glyph glyph-name="brush_fill" unicode="&#58961;" d="M968 609.6L737.6 840c-32.8 32-85.6 32-117.6 0l-88-88 58.4-58.4h1.6L821.6 464l39.2-39.2 19.2-19.2 87.2 87.2c32.8 32 32.8 84 0.8 116.8m-720-640l-17.6 17.6-115.2 115.2-18.4 18.4-52.8 56.8L32 190.4v-203.2c0-45.6 36.8-83.2 83.2-83.2h200.8l-15.2 14.4-52.8 51.2z m284.8 665.6l-59.2 58.4-416-416.8 59.2-59.2 229.6-229.6 59.2-58.4 415.2 415.2-56.8 60.8-231.2 229.6z"  horiz-adv-x="1024" />

    
    <glyph glyph-name="businesscard_fill" unicode="&#58962;" d="M792 504H552c-22.4 0-40 17.6-40 40s17.6 40 40 40h240c22.4 0 40-17.6 40-40s-17.6-40-40-40m0-160H632c-22.4 0-40 17.6-40 40s17.6 40 40 40h160c22.4 0 40-17.6 40-40s-17.6-40-40-40m0-160H632c-22.4 0-40 17.6-40 40s17.6 40 40 40h160c22.4 0 40-17.6 40-40s-17.6-40-40-40m-637.6 21.6l-2.4 6.4v69.6c0 25.6 16.8 50.4 40.8 60.8 1.6 0.8 25.6 11.2 59.2 21.6-10.4 16.8-15.2 36-15.2 56V472c0 48.8 32 90.4 76 105.6 11.2 4 23.2 6.4 36 6.4 61.6 0 112-50.4 112-112v-52.8c0-20-5.6-37.6-14.4-54.4 23.2-6.4 45.6-14.4 67.2-24 16-6.4 28.8-20.8 35.2-38.4 2.4-7.2 4.8-14.4 4.8-21.6v-63.2c-2.4-29.6-27.2-52.8-56.8-52.8h-288c-24.8 1.6-46.4 17.6-54.4 40.8M912 784H112C68 784 32 748 32 704v-640c0-44 36-80 80-80h800c44 0 80 36 80 80V704c0 44-36 80-80 80"  horiz-adv-x="1024" />

    
    <glyph glyph-name="businesscard" unicode="&#58963;" d="M792 584H552c-22.4 0-40-17.6-40-40s17.6-40 40-40h240c22.4 0 40 17.6 40 40s-17.6 40-40 40m0-160H632c-22.4 0-40-17.6-40-40s17.6-40 40-40h160c22.4 0 40 17.6 40 40s-17.6 40-40 40m0-160H632c-22.4 0-40-17.6-40-40s17.6-40 40-40h160c22.4 0 40 17.6 40 40s-17.6 40-40 40m120-200H112V704h800v-640m0 720H112C68 784 32 748.8 32 704v-640c0-44 36-80 80-80h800c44 0 80 36 80 80V704c0 44-36 80-80 80M472 246.4H232V272c25.6 10.4 80 28.8 120 28.8s93.6-18.4 120-28.8v-25.6zM316 472c0 17.6 14.4 32 32 32s32-14.4 32-32v-52.8c0-17.6-13.6-32-31.2-32h-0.8c-17.6 0-32 14.4-32 32V472z m196.8-130.4c-21.6 8.8-44 16.8-67.2 24 8.8 16 14.4 34.4 14.4 54.4V472c0 61.6-50.4 112-112 112s-112-50.4-112-112v-52.8c0-20.8 5.6-39.2 15.2-56-32.8-10.4-57.6-20.8-59.2-21.6-24-10.4-40-34.4-40.8-60.8v-69.6l2.4-6.4c8-24 30.4-39.2 54.4-39.2h286.4c29.6 0 54.4 23.2 56.8 52.8v63.2c0.8 26.4-16 51.2-38.4 60z"  horiz-adv-x="1024" />

    
    <glyph glyph-name="camera" unicode="&#58964;" d="M115.2 21.6V595.2h192l60 138.4c2.4 5.6 13.6 12.8 20 12.8h251.2c6.4 0 17.6-7.2 20-12.8l60-138.4 191.2-0.8v-573.6l-794.4 0.8z m793.6 656.8H772l-38.4 88c-16 36-56.8 63.2-96 63.2H386.4c-39.2 0-80.8-27.2-96-63.2l-38.4-88H115.2C69.6 678.4 32 640.8 32 595.2v-572.8c0-46.4 37.6-84 83.2-84h792.8c46.4 0 83.2 37.6 83.2 84V595.2c0.8 45.6-36.8 83.2-82.4 83.2zM512 204c-68.8 0-125.6 56-125.6 125.6s56 125.6 125.6 125.6 125.6-56 125.6-125.6S580.8 204 512 204m0 333.6c-115.2 0-208.8-93.6-208.8-208.8s93.6-208 208.8-208 208.8 93.6 208.8 208.8-93.6 208-208.8 208"  horiz-adv-x="1024" />

    
    <glyph glyph-name="camera_fill" unicode="&#58965;" d="M512 537.6c115.2 0 208.8-93.6 208.8-208.8s-93.6-208-208.8-208-208.8 93.6-208.8 208.8 93.6 208 208.8 208m417.6 138.4c-6.4 1.6-13.6 3.2-20.8 3.2H772l-29.6 68-8.8 20c-16 36-56.8 63.2-96 63.2H386.4c-39.2 0-80.8-27.2-96-63.2l-8.8-20-29.6-68H115.2c-7.2 0-14.4-1.6-20.8-3.2C57.6 666.4 32 632.8 32 595.2v-572.8c0-39.2 26.4-71.2 62.4-80.8 6.4-1.6 13.6-3.2 20.8-3.2h792.8c7.2 0 14.4 1.6 20.8 3.2 36.8 9.6 62.4 43.2 62.4 80.8V595.2c0.8 38.4-25.6 71.2-61.6 80.8"  horiz-adv-x="1024" />

    
    <glyph glyph-name="cart" unicode="&#58966;" d="M355.789804 124.988235c12.047059 0 24.094118-2.409412 35.338039-7.228235 11.243922-4.818824 20.881569-11.243922 28.912941-19.275294s15.259608-18.472157 19.275294-28.912941c4.818824-11.243922 7.228235-23.29098 7.228236-35.33804 0-12.047059-2.409412-24.094118-7.228236-35.338039s-11.243922-20.881569-19.275294-28.912941-18.472157-15.259608-28.912941-19.275294c-11.243922-4.818824-23.29098-7.228235-35.338039-7.228235-12.850196 0-24.897255 2.409412-36.141177 7.228235-11.243922 4.818824-20.881569 11.243922-28.912941 19.275294s-15.259608 18.472157-19.275294 28.912941-7.228235 23.29098-7.228235 35.338039c0 12.047059 2.409412 24.094118 7.228235 35.33804s11.243922 20.881569 19.275294 28.912941 18.472157 14.456471 28.912941 19.275294c11.243922 4.818824 23.29098 7.228235 36.141177 7.228235z m407.190588-1.606274c12.047059 0 24.094118-2.409412 36.141177-7.228236 11.243922-4.818824 20.881569-11.243922 28.912941-19.275294s15.259608-18.472157 19.275294-28.912941c4.015686-11.243922 7.228235-23.29098 7.228235-35.338039 0-12.047059-2.409412-24.094118-7.228235-35.338039-4.818824-11.243922-11.243922-20.881569-19.275294-28.912941s-18.472157-15.259608-28.912941-19.275295c-11.243922-4.818824-23.29098-7.228235-36.141177-7.228235s-24.094118 2.409412-35.338039 7.228235c-11.243922 4.818824-20.881569 11.243922-28.912941 19.275295s-15.259608 18.472157-19.275294 28.912941c-4.015686 11.243922-7.228235 23.29098-7.228236 35.338039 0 12.047059 2.409412 24.094118 7.228236 35.338039 4.818824 11.243922 11.243922 20.881569 19.275294 28.912941s18.472157 14.456471 28.912941 19.275294c11.243922 4.818824 23.29098 7.228235 35.338039 7.228236z m163.84 554.967843c18.472157 0 32.12549-2.409412 42.566275-7.228235 10.440784-4.818824 16.865882-11.243922 20.881568-18.472157 4.015686-7.228235 6.425098-15.259608 6.425098-23.290981s-0.803137-15.259608-3.212549-20.881568c-2.409412-6.425098-6.425098-18.472157-12.850196-36.141177-6.425098-18.472157-12.850196-38.550588-20.881568-60.235294s-15.259608-43.369412-22.487844-65.054117-12.850196-38.550588-18.472156-51.400785c-8.031373-26.503529-19.275294-44.172549-32.125491-54.613333-12.850196-10.440784-28.109804-15.259608-47.385098-15.259608H326.876863l14.45647-88.345098h493.126275c31.322353 0 47.385098-12.850196 47.385098-40.156863 0-12.850196-3.212549-24.094118-8.83451-34.534902s-18.472157-14.456471-36.141176-14.45647h-514.007844c-12.850196 0-24.094118 3.212549-32.928627 8.834509-8.83451 6.425098-16.062745 12.850196-22.487843 23.290981-6.425098 8.83451-11.243922 20.078431-14.456471 31.322353-4.015686 11.243922-6.425098 20.881569-8.031372 31.322353-0.803137 4.015686-2.409412 12.850196-4.818824 28.109804-3.212549 15.259608-6.425098 34.534902-11.243921 56.219608-4.015686 22.487843-8.83451 47.385098-14.456471 75.494901-4.818824 28.109804-10.440784 55.416471-16.062745 83.526275-12.047059 66.660392-26.503529 139.745882-42.566275 220.059608h-73.08549c-10.440784 0-18.472157 2.409412-24.094117 7.228235-6.425098 4.818824-12.047059 11.243922-16.062745 18.472157-4.015686 7.228235-7.228235 14.456471-8.83451 22.487843-0.803137 8.83451-2.409412 16.062745-2.409412 23.290981 0 12.850196 4.015686 24.094118 12.850196 32.12549S65.054118 822.111373 80.313725 822.111373h98.785883c12.850196 0 23.29098-2.409412 31.322353-6.425098s14.456471-8.83451 18.472157-15.259608c4.818824-6.425098 8.031373-12.047059 10.440784-18.472157 2.409412-6.425098 4.015686-12.047059 4.818823-16.062745 0.803137-4.818824 3.212549-12.047059 4.015687-22.487843 0.803137-8.83451 3.212549-19.275294 4.015686-28.912942 2.409412-12.047059 4.015686-24.094118 6.425098-36.944313 0 0.803137 668.210196 0.803137 668.210196 0.803137z m-36.141176-86.738824l-611.990589 2.409412 34.534902-176.690196 511.598432-0.803137 65.857255 175.083921z"  horiz-adv-x="1028" />

    
    <glyph glyph-name="cart_fill" unicode="&#58967;" d="M354.4 128c12 0 24-2.4 35.2-7.2s20.8-11.2 28.8-19.2 15.2-18.4 19.2-28.8c4.8-11.2 7.2-23.2 7.2-35.2 0-12-2.4-24-7.2-35.2-4.8-11.2-11.2-20.8-19.2-28.8s-18.4-15.2-28.8-19.2c-11.2-4.8-23.2-7.2-35.2-7.2-12.8 0-24.8 2.4-36 7.2-11.2 4.8-20.8 11.2-28.8 19.2s-15.2 18.4-19.2 28.8c-4.8 11.2-7.2 23.2-7.2 35.2 0 12 2.4 24 7.2 35.2 4.8 11.2 11.2 20.8 19.2 28.8s18.4 14.4 28.8 19.2 23.2 7.2 36 7.2z m405.6-2.4c12 0 24-2.4 36-7.2 11.2-4.8 20.8-11.2 28.8-19.2s15.2-18.4 19.2-28.8c4-11.2 7.2-23.2 7.2-35.2 0-12-2.4-24-7.2-35.2-4.8-11.2-11.2-20.8-19.2-28.8s-18.4-15.2-28.8-19.2c-11.2-4.8-23.2-7.2-36-7.2s-24 2.4-35.2 7.2c-11.2 4.8-20.8 11.2-28.8 19.2s-15.2 18.4-19.2 28.8c-4 11.2-7.2 23.2-7.2 35.2 0 12 2.4 24 7.2 35.2 4.8 11.2 11.2 20.8 19.2 28.8s18.4 14.4 28.8 19.2c11.2 5.6 23.2 7.2 35.2 7.2z m163.2 553.6c18.4 0 32-2.4 42.4-7.2 10.4-4.8 16.8-11.2 20.8-18.4 4-7.2 6.4-15.2 6.4-23.2s-0.8-15.2-3.2-20.8c-2.4-6.4-6.4-18.4-12.8-36-6.4-18.4-12.8-38.4-20.8-60s-15.2-43.2-22.4-64.8-12.8-38.4-18.4-51.2c-8-26.4-19.2-44-32-54.4s-28-15.2-47.2-15.2H325.6l14.4-88h491.2c31.2 0 47.2-12.8 47.2-40 0-12.8-3.2-24-8.8-34.4-6.4-8.8-18.4-14.4-36-14.4h-512c-12.8 0-24 3.2-32.8 8.8-8.8 6.4-16 12.8-22.4 23.2-6.4 8.8-11.2 20-14.4 31.2-4 11.2-6.4 20.8-8 31.2-0.8 4-2.4 12.8-4.8 28-3.2 15.2-6.4 34.4-11.2 56-4 22.4-8.8 47.2-14.4 75.2-4.8 28-10.4 55.2-16 83.2-12 66.4-26.4 139.2-42.4 219.2h-72.8c-10.4 0-18.4 2.4-24 7.2-6.4 4.8-12 11.2-16 18.4-4 7.2-7.2 14.4-8.8 22.4-0.8 8.8-2.4 16-2.4 22.4 0 12.8 4 24 12.8 32S64.8 822.4 80 822.4h96.8c12.8 0 23.2-2.4 31.2-6.4s14.4-8.8 18.4-15.2c4.8-6.4 8-12 10.4-18.4 2.4-6.4 4-12 4.8-16.8 0.8-4.8 3.2-12 4-22.4 0.8-8.8 3.2-19.2 4-28.8 2.4-12 4-24 6.4-36.8 1.6 1.6 667.2 1.6 667.2 1.6z"  horiz-adv-x="1024" />

    
    <glyph glyph-name="clock" unicode="&#58968;" d="M513.6 16c-196.8 0-356 160-356 356S317.6 728 513.6 728s356-160 356-356S710.4 16 513.6 16m0 792c-240 0-435.2-195.2-435.2-435.2 0-126.4 54.4-239.2 140-319.2-6.4-1.6-12-4.8-16-9.6l-72.8-72.8c-15.2-15.2-15.2-40.8 0-56 15.2-15.2 40.8-15.2 56 0l72.8 72.8c6.4 6.4 10.4 15.2 11.2 24.8 72-49.6 157.6-76 244.8-76 88 0 170.4 26.4 239.2 72 1.6-8 4.8-15.2 10.4-20.8l72.8-72.8c15.2-15.2 40-15.2 56 0 15.2 15.2 15.2 40.8 0 56l-72.8 72.8c-3.2 3.2-7.2 5.6-11.2 8 87.2 80 141.6 193.6 141.6 320.8-0.8 240-196.8 435.2-436.8 435.2m40-428V610.4c0 21.6-17.6 39.2-39.2 39.2s-39.2-17.6-39.2-39.2v-246.4c0-10.4 4-20.8 12-28l132.8-132.8c15.2-15.2 40-15.2 56 0 15.2 15.2 15.2 40.8 0 56L553.6 380z m-447.2 288l112 112c15.2 16 14.4 40.8-1.6 56-15.2 14.4-39.2 14.4-54.4 0l-112-112c-15.2-15.2-15.2-40.8 0-56 15.2-15.2 40-15.2 56 0m867.2 72.8l-112 112c-15.2 15.2-40.8 15.2-56 0-15.2-15.2-15.2-40.8 0-56l112-112c15.2-15.2 40-15.2 56 0s16 40 0 56c0-0.8 0 0 0 0"  horiz-adv-x="1024" />

    
    <glyph glyph-name="clock_fill" unicode="&#58969;" d="M474.4 364V610.4c0 21.6 17.6 39.2 39.2 39.2s39.2-17.6 39.2-39.2v-229.6l120.8-120.8c15.2-16 14.4-40.8-0.8-56-15.2-15.2-40-15.2-55.2 0L485.6 336c-7.2 7.2-11.2 16.8-11.2 28M513.6 808c-240 0-435.2-195.2-435.2-435.2 0-126.4 54.4-239.2 140-319.2-6.4-1.6-12-4.8-16-9.6l-72.8-72.8c-15.2-15.2-15.2-40.8 0-56 15.2-15.2 40.8-15.2 56 0l72.8 72.8c6.4 6.4 10.4 15.2 11.2 24.8 72-49.6 157.6-76 244.8-76 88 0 170.4 26.4 239.2 72 1.6-8 4.8-15.2 10.4-20.8l72.8-72.8c15.2-15.2 40-15.2 56 0 15.2 15.2 15.2 40.8 0 56l-72.8 72.8c-3.2 3.2-7.2 5.6-11.2 8 87.2 80 141.6 193.6 141.6 320.8-0.8 240-196.8 435.2-436.8 435.2M106.4 668l112 112c15.2 16 14.4 40.8-1.6 56-15.2 14.4-39.2 14.4-54.4 0l-112-112c-15.2-15.2-15.2-40.8 0-56 15.2-15.2 40-15.2 56 0m867.2 72.8l-112 112c-15.2 15.2-40.8 15.2-56 0-15.2-15.2-15.2-40.8 0-56l112-112c15.2-15.2 40-15.2 56 0s16 40 0 56c0-0.8 0 0 0 0"  horiz-adv-x="1024" />

    
    <glyph glyph-name="collection" unicode="&#58970;" d="M742.4 322.4c-25.6-24.8-39.2-68-33.6-103.2l33.6-198.4-176 93.6c-31.2 16.8-76.8 16.8-108 0l-176.8-93.6 33.6 198.4c5.6 35.2-8 78.4-33.6 103.2L138.4 463.2 336 492c35.2 4.8 72 32 87.2 64L512 736l88-180c16-32 52.8-58.4 87.2-64l197.6-28.8-142.4-140.8z m228 112c18.4 18.4 25.6 41.6 18.4 62.4-7.2 21.6-25.6 36-52 39.2l-238.4 35.2c-8.8 1.6-23.2 12-27.2 20L565.6 808.8c-11.2 24-31.2 37.6-53.6 37.6-22.4 0-42.4-13.6-53.6-37.6L352 591.2c-4-8-18.4-18.4-27.2-20L86.4 536c-25.6-4-44.8-18.4-52-39.2-7.2-21.6 0-44 18.4-62.4l172-169.6c6.4-6.4 12-24 10.4-32.8l-40.8-239.2c-4.8-26.4 3.2-48.8 21.6-61.6 9.6-7.2 20-10.4 32-10.4 10.4 0 22.4 3.2 33.6 8.8l212.8 112.8c8 4 25.6 4 33.6 0l212.8-112.8c23.2-12 47.2-12 64.8 1.6 18.4 13.6 26.4 36 21.6 61.6L786.4 232c-1.6 8.8 4 26.4 10.4 32.8l173.6 169.6z"  horiz-adv-x="1024" />

    
    <glyph glyph-name="collection_fill" unicode="&#58971;" d="M970.4 434.4c18.4 18.4 25.6 41.6 18.4 62.4-7.2 21.6-25.6 36-52 39.2l-238.4 35.2c-8.8 1.6-23.2 12-27.2 20L565.6 808.8c-12 24-31.2 37.6-53.6 37.6-22.4 0-42.4-13.6-53.6-37.6L352 591.2c-4-8-18.4-18.4-27.2-20L86.4 536c-25.6-4-44.8-18.4-52-39.2-7.2-21.6 0-44 18.4-62.4l172.8-169.6c6.4-6.4 12-23.2 10.4-32.8l-40.8-239.2c-4.8-26.4 3.2-48.8 21.6-61.6 9.6-7.2 20-10.4 32-10.4 10.4 0 22.4 3.2 33.6 8.8l212.8 112.8c7.2 4 25.6 4 33.6 0l212.8-112.8c23.2-12 47.2-12 64.8 1.6 18.4 12.8 26.4 36 21.6 61.6L787.2 232c-1.6 8.8 4 26.4 10.4 32.8l172.8 169.6z"  horiz-adv-x="1024" />

    
    <glyph glyph-name="computer" unicode="&#58972;" d="M115.2 163.2V266.4h792.8v-104l-792.8 0.8z m793.6 599.2v-408.8H115.2V763.2l793.6-0.8z m0 88H115.2C69.6 850.4 32 811.2 32 762.4v-599.2c0-48 37.6-88 83.2-88h355.2v-71.2H344.8c-23.2 0-41.6-19.2-41.6-44 0-24 18.4-44 41.6-44h333.6c23.2 0 41.6 19.2 41.6 44 0 24-18.4 44-41.6 44H553.6v71.2h355.2c46.4 0 83.2 39.2 83.2 88V762.4c0 48.8-37.6 88-83.2 88z"  horiz-adv-x="1024" />

    
    <glyph glyph-name="computer_fill" unicode="&#58973;" d="M115.2 266.4H32v-103.2c0-48 37.6-88 83.2-88h355.2v-71.2H344.8c-23.2 0-41.6-19.2-41.6-44 0-24 18.4-44 41.6-44h333.6c23.2 0 41.6 19.2 41.6 44 0 24-18.4 44-41.6 44H553.6v71.2h355.2c46.4 0 83.2 39.2 83.2 88V266.4H115.2z m793.6 584H115.2C69.6 850.4 32 811.2 32 762.4v-408.8h960V762.4c0 48.8-37.6 88-83.2 88"  horiz-adv-x="1024" />

    
    <glyph glyph-name="coupons" unicode="&#58974;" d="M912 188V64H112V188C203.2 206.4 272 287.2 272 384c0 95.2-67.2 176.8-160 196V704h800v-124C819.2 560.8 752 479.2 752 384s67.2-176.8 160-196m40 316h40V704c0 44-36 80-80 80H112C68 784 32 748.8 32 704v-200h40c66.4 0 120-53.6 120-120S138.4 264 72 264H32v-200c0-44 36-80 80-80h800c44 0 80 36 80 80V264h-40c-66.4 0-120 53.6-120 120s53.6 120 120 120M632 368c15.2 0 28 12.8 28 28S647.2 424 632 424H551.2l80 80c11.2 11.2 11.2 28.8 0 39.2-11.2 11.2-28.8 11.2-39.2 0L512 464 432 544c-11.2 11.2-28.8 11.2-40 0s-11.2-28.8 0-40l80-80H392c-15.2 0-28-12.8-28-28S376.8 368 392 368h92v-64H392c-15.2 0-28-12.8-28-28S376.8 248 392 248h92v-24c0-15.2 12.8-28 28-28s28 12.8 28 28v24H632c15.2 0 28 12.8 28 28S647.2 304 632 304H540v64H632z"  horiz-adv-x="1024" />

    
    <glyph glyph-name="coupons_fill" unicode="&#58975;" d="M632 304c15.2 0 28-12.8 28-28S647.2 248 632 248H540v-24c0-15.2-12.8-28-28-28s-28 12.8-28 28v24H392c-15.2 0-28 12.8-28 28S376.8 304 392 304h92v64H392c-15.2 0-28 12.8-28 28S376.8 424 392 424h80.8L392 504c-11.2 11.2-11.2 28.8 0 39.2 11.2 11.2 28.8 11.2 39.2 0l80-80 80 80c11.2 11.2 28.8 11.2 39.2 0 11.2-11.2 11.2-28.8 0-39.2L552 424h80c15.2 0 28-12.8 28-28S647.2 368 632 368H540v-64H632z m320 200h40V704c0 44-36 80-80 80H112C68 784 32 748 32 704v-200h40c66.4 0 120-53.6 120-120S138.4 264 72 264H32v-200c0-44 36-80 80-80h800c44 0 80 36 80 80V264h-40c-66.4 0-120 53.6-120 120s53.6 120 120 120z"  horiz-adv-x="1024" />

    
    <glyph glyph-name="createtask_fill" unicode="&#58976;" d="M741.6 558.4H436.8c-24 0-44 19.2-44 44 0 24 19.2 44 44 44h305.6c24 0 44-19.2 44-44-0.8-24-20-44-44.8-44m0-218.4H436.8c-24 0-44 19.2-44 44 0 24 19.2 44 44 44h305.6c24 0 44-19.2 44-44-0.8-24-20-44-44.8-44m0-217.6H436.8c-24 0-44 19.2-44 44s19.2 44 44 44h305.6c24 0 44-19.2 44-44s-20-44-44.8-44m-448 436c-24 0-44 19.2-44 44 0 24 19.2 44 44 44 24 0 44-19.2 44-44 0-24-20-44-44-44m0-218.4c-24 0.8-42.4 21.6-41.6 45.6 0.8 22.4 19.2 40.8 41.6 41.6 24 0 44-19.2 44-44 0-23.2-20-43.2-44-43.2m0-217.6c-24 0.8-42.4 21.6-41.6 45.6 0.8 22.4 19.2 40.8 41.6 41.6 24 0 44-19.2 44-44s-20-43.2-44-43.2M904.8 864H119.2C71.2 864 32 824.8 32 776.8v-786.4c0-48 39.2-87.2 87.2-87.2h786.4c48 0 87.2 39.2 87.2 87.2V776.8c-0.8 48-40 87.2-88 87.2"  horiz-adv-x="1024" />

    
    <glyph glyph-name="createtask" unicode="&#58977;" d="M556-8.8H120V777.6h785.6V-8l-349.6-0.8zM904.8 864H119.2C71.2 864 32 824.8 32 776.8v-786.4c0-48 39.2-87.2 87.2-87.2h786.4c48 0 87.2 39.2 87.2 86.4V776.8c-0.8 48.8-40 87.2-88 87.2zM741.6 645.6H436.8c-24 0-44-19.2-44-44 0-24 19.2-44 44-44h305.6c24 0 44 19.2 44 44-0.8 24.8-20 44-44.8 44m0-217.6H436.8c-24 0-44-19.2-44-44 0-24 19.2-44 44-44h305.6c24 0 44 19.2 44 44-0.8 24-20 44-44.8 44m0-218.4H436.8c-24 0-44-19.2-44-44s19.2-44 44-44h305.6c24 0 44 19.2 44 44s-20 44-44.8 44m-448 436c-24 0-44-19.2-44-44 0-24 19.2-44 44-44 24 0 44 19.2 44 44s-20 44-44 44m0-217.6c-24 0-44-19.2-44-44 0-24 19.2-44 44-44 24 0 44 19.2 44 44 0 24-20 44-44 44m0-218.4c-24 0-44-19.2-44-44s19.2-44 44-44c24 0 44 19.2 44 44s-20 44-44 44"  horiz-adv-x="1024" />

    
    <glyph glyph-name="customerservice_fill" unicode="&#58978;" d="M857.6 518.4h-76.8v76.8C780.8 743.2 660 864 512 864S243.2 743.2 243.2 595.2v-76.8h-76.8c-42.4 0-76.8-34.4-76.8-76.8v-230.4c0-42.4 34.4-76.8 76.8-76.8H320V595.2c0 105.6 86.4 192 192 192s192-86.4 192-192v-461.6c0-40.8-9.6-69.6-30.4-88.8-20-17.6-51.2-27.2-93.6-28.8-12.8 24.8-39.2 40.8-68 40.8-42.4 0-76.8-34.4-76.8-76.8s34.4-76.8 76.8-76.8c27.2 0 51.2 14.4 64.8 36 64 1.6 112.8 17.6 148 48.8 37.6 33.6 56 82.4 56 145.6h76.8c42.4 0 76.8 34.4 76.8 76.8V441.6c0 42.4-34.4 76.8-76.8 76.8"  horiz-adv-x="1024" />

    
    <glyph glyph-name="customerservice" unicode="&#58979;" d="M857.6 211.2h-76.8V441.6h76.8v-230.4z m-614.4 0h-76.8V441.6h76.8v-230.4z m614.4 307.2h-76.8v76.8C780.8 743.2 660 864 512 864S243.2 743.2 243.2 595.2v-76.8h-76.8c-42.4 0-76.8-34.4-76.8-76.8v-230.4c0-42.4 34.4-76.8 76.8-76.8H320V595.2c0 105.6 86.4 192 192 192s192-86.4 192-192v-461.6c0-40.8-10.4-69.6-30.4-88-20-17.6-51.2-27.2-93.6-29.6-12.8 24.8-39.2 40.8-67.2 40.8-42.4 0-76.8-34.4-76.8-76.8s34.4-76.8 76.8-76.8c27.2 0 51.2 14.4 64.8 36 64 1.6 112.8 17.6 148 48.8 37.6 33.6 56 82.4 56 145.6h76.8c42.4 0 76.8 34.4 76.8 76.8V441.6c-0.8 42.4-35.2 76.8-77.6 76.8z"  horiz-adv-x="1024" />

    
    <glyph glyph-name="delete" unicode="&#58980;" d="M512-16c-220.8 0-400 179.2-400 400s179.2 400 400 400 400-179.2 400-400-179.2-400-400-400M512 864C247.2 864 32 648.8 32 384s215.2-480 480-480 480 215.2 480 480S776.8 864 512 864m172-292c-15.2 16-40.8 16-56.8 0L504 448.8 380 572c-16 16-40.8 16-56.8 0s-16-40.8 0-56.8L447.2 392 324 268c-15.2-16-15.2-41.6 0.8-56.8 15.2-15.2 40-15.2 55.2 0L504 335.2l124-124c15.2-16 40.8-16 56 0 16 15.2 16 40.8 0 56.8L560.8 392l124 124c15.2 15.2 15.2 40.8-0.8 56"  horiz-adv-x="1024" />

    
    <glyph glyph-name="delete_fill" unicode="&#58981;" d="M684 268c16-16 16-40.8 0-56.8s-40.8-16-56.8 0L504 335.2 380 212c-15.2-16-40.8-16-56 0-16 16-16 40.8 0 56.8L447.2 392 324 516c-15.2 16-15.2 41.6 0.8 56.8 15.2 15.2 40 15.2 55.2 0L504 448.8l124 124c16 15.2 41.6 15.2 56.8-0.8 15.2-15.2 15.2-40 0-55.2L560.8 392l123.2-124zM512 864C247.2 864 32 648.8 32 384s215.2-480 480-480 480 215.2 480 480S776.8 864 512 864z"  horiz-adv-x="1024" />

    
    <glyph glyph-name="deliver" unicode="&#58982;" d="M340 316.8H202.4c-19.2 0-34.4 15.2-34.4 34.4s15.2 34.4 34.4 34.4h103.2v104c0 19.2 15.2 34.4 34.4 34.4s34.4-15.2 34.4-34.4v-136.8c0-21.6-15.2-36-34.4-36z m376-98.4c-66.4 0-122.4-47.2-136.8-108.8H446.4c-15.2 62.4-70.4 108.8-136.8 108.8-78.4 0-140.8-63.2-140.8-140.8S231.2-64 309.6-64c64.8 0 119.2 44 135.2 104h136c16-60 70.4-104 135.2-104 78.4 0 140.8 63.2 140.8 140.8s-63.2 141.6-140.8 141.6z m-406.4-212c-40 0-72 32-72 72s32 72 72 72 72-32 72-72-32-72-72-72z m406.4 0c-40 0-72 32-72 72s32 72 72 72 72-32 72-72-32-72-72-72zM889.6 832H391.2C344 832 305.6 793.6 305.6 745.6v-99.2L96 541.6c-0.8-0.8-3.2-2.4-4-3.2C52.8 512 32 468.8 32 418.4v-344c0-19.2 15.2-34.4 34.4-34.4s34.4 15.2 34.4 34.4V419.2c0 27.2 10.4 48 28.8 62.4l226.4 112.8c0.8 0.8 3.2 2.4 4 3.2 2.4 0.8 4 3.2 6.4 4 0.8 2.4 3.2 4 4 4.8l3.2 6.4c0.8 2.4 0.8 4.8 0.8 7.2 0 2.4 0.8 3.2 0.8 4.8V745.6c0 8.8 8 16.8 16.8 16.8h498.4c19.2 0 34.4-16 34.4-35.2v-652.8c0-19.2 15.2-34.4 34.4-34.4s34.4 15.2 34.4 34.4V728.8c-0.8 56.8-46.4 103.2-104 103.2z"  horiz-adv-x="1024" />

    
    <glyph glyph-name="deliver_fill" unicode="&#58983;" d="M884 827.2H390.4c-44 0-84.8-37.6-84.8-84.8v-96L92.8 540.8s-3.2 0-3.2-3.2C52 511.2 32 470.4 32 418.4v-344c0-9.6 3.2-16.8 9.6-24s13.6-9.6 24-9.6h105.6c0 7.2-3.2 9.6-3.2 16.8 0 84.8 68 153.6 153.6 153.6s153.6-68 153.6-153.6c0-7.2 0-9.6-3.2-16.8h105.6v16.8c0 84.8 68 153.6 153.6 153.6s153.6-68 153.6-153.6v-16.8h72c20 0 33.6 13.6 33.6 33.6V725.6c-3.2 54.4-48 101.6-106.4 101.6zM304.8 418.4c0-20-13.6-33.6-33.6-33.6H133.6c-20 0-33.6 13.6-33.6 33.6 0 68 112.8 116 156.8 132.8 13.6 7.2 24 3.2 33.6-3.2 9.6-7.2 13.6-16.8 13.6-27.2v-102.4z m-99.2-358.4c0-65.6 53.6-120 120-120s120 53.6 120 120-53.6 120-120 120-120-53.6-120-120z m406.4 0c0-65.6 53.6-120 120-120s120 53.6 120 120-53.6 120-120 120c-67.2 0-120-53.6-120-120z"  horiz-adv-x="1024" />

    
    <glyph glyph-name="document_fill" unicode="&#58984;" d="M914.4 599.2L709.6 821.6C699.2 832 686.4 840.8 672 848v-264h252.8c-3.2 5.6-6.4 10.4-10.4 15.2M672 304H352c-22.4 0-40 17.6-40 40s17.6 40 40 40h320c22.4 0 40-17.6 40-40s-17.6-40-40-40m0-200H352c-22.4 0-40 17.6-40 40s17.6 40 40 40h320c22.4 0 40-17.6 40-40s-17.6-40-40-40m280 400H672c-44 0-80 36-80 80V864H152C108 864 72 828 72 784v-800c0-44 35.2-80 80-80h720c44 0 80 36 80 80V501.6 504"  horiz-adv-x="1024" />

    
    <glyph glyph-name="document" unicode="&#58985;" d="M152-16V784h440v-200c0-44 36-80 80-80h200v-520H152z m667.2 600H672V744l147.2-160z m95.2 15.2L709.6 821.6C686.4 846.4 646.4 864 612.8 864H152C108 864 72 828 72 784v-800c0-44 35.2-80 80-80h720c44 0 80 36 80 80V501.6c0 32.8-16 73.6-37.6 97.6zM672 384H352c-22.4 0-40-17.6-40-40s17.6-40 40-40h320c22.4 0 40 17.6 40 40s-17.6 40-40 40m0-200H352c-22.4 0-40-17.6-40-40s17.6-40 40-40h320c22.4 0 40 17.6 40 40s-17.6 40-40 40"  horiz-adv-x="1024" />

    
    <glyph glyph-name="dynamic" unicode="&#58986;" d="M119.2-8.8V776.8h785.6v-785.6H119.2zM904.8 864H119.2C71.2 864 32 824.8 32 776.8v-786.4c0-48 39.2-87.2 87.2-87.2h786.4c48 0 87.2 39.2 87.2 87.2V776.8c-0.8 48-40 87.2-88 87.2zM793.6 478.4L634.4 319.2 495.2 458.4c-16.8 16.8-44.8 16.8-61.6 0L219.2 247.2c-16.8-17.6-16-44.8 1.6-61.6 16.8-16 43.2-16 60 0L464 366.4l139.2-139.2c17.6-16 44-16 61.6 0l190.4 190.4c16.8 16.8 16.8 44.8 0 61.6-16.8 16-44.8 16-61.6-0.8"  horiz-adv-x="1024" />

    
    <glyph glyph-name="dynamic_fill" unicode="&#58987;" d="M855.2 416.8L664.8 226.4c-16.8-16.8-44.8-16.8-61.6 0L464 366.4 280.8 184.8c-16.8-16.8-44.8-16.8-61.6 0-16.8 16.8-16.8 44.8 0 61.6l213.6 212c16.8 16.8 44.8 16.8 61.6 0l139.2-139.2 159.2 159.2c16.8 16.8 44.8 16.8 61.6 0s17.6-44.8 0.8-61.6M904.8 864H119.2C71.2 864 32 824.8 32 776.8v-786.4c0-48 39.2-87.2 87.2-87.2h786.4c48 0 87.2 39.2 87.2 87.2V776.8c-0.8 48-40 87.2-88 87.2"  horiz-adv-x="1024" />

    
    <glyph glyph-name="emoji" unicode="&#58989;" d="M512-16c-220.8 0-400 179.2-400 400s179.2 400 400 400 400-179.2 400-400-179.2-400-400-400M512 864C247.2 864 32 648.8 32 384s215.2-480 480-480 480 215.2 480 480S776.8 864 512 864m236-565.6c-19.2 11.2-43.2 4.8-54.4-14.4C657.6 222.4 591.2 184 520 184c-71.2 0-137.6 38.4-173.6 100-11.2 19.2-35.2 25.6-54.4 14.4-19.2-11.2-25.6-35.2-14.4-54.4C327.2 157.6 420 104 520 104s192 53.6 242.4 140c11.2 19.2 4.8 43.2-14.4 54.4M352 384c22.4 0 40 17.6 40 40V544c0 22.4-17.6 40-40 40s-40-17.6-40-40v-120c0-22.4 17.6-40 40-40m320 0c22.4 0 40 17.6 40 40V544c0 22.4-17.6 40-40 40s-40-17.6-40-40v-120c0-22.4 17.6-40 40-40"  horiz-adv-x="1024" />

    
    <glyph glyph-name="emoji_fill" unicode="&#58990;" d="M762.4 244C712 157.6 620 104 520 104s-192 53.6-242.4 140c-11.2 19.2-4.8 43.2 14.4 54.4 19.2 11.2 43.2 4.8 54.4-14.4C382.4 222.4 448.8 184 520 184c71.2 0 137.6 38.4 173.6 100 12 18.4 36 24.8 55.2 12.8 17.6-11.2 24-34.4 13.6-52.8zM312 544c0 22.4 17.6 40 40 40s40-17.6 40-40v-120c0-22.4-17.6-40-40-40s-40 17.6-40 40V544z m320 0c0 22.4 17.6 40 40 40s40-17.6 40-40v-120c0-22.4-17.6-40-40-40s-40 17.6-40 40V544zM512 864C247.2 864 32 648.8 32 384s215.2-480 480-480 480 215.2 480 480S776.8 864 512 864z"  horiz-adv-x="1024" />

    
    <glyph glyph-name="eit" unicode="&#58991;" d="M634.4 477.6c0-1.6-0.8-10.4-12-53.6l-28.8-108c-8.8-32-28.8-60.8-59.2-86.4-32-27.2-64.8-41.6-96.8-41.6-28 0-49.6 9.6-66.4 30.4-16 17.6-24 44-24 77.6 0 78.4 22.4 144.8 66.4 196 40.8 50.4 87.2 74.4 140.8 74.4 24.8 0 44-9.6 58.4-30.4 14.4-18.4 21.6-37.6 21.6-58.4m356-318.4c-2.4 4.8-7.2 7.2-12.8 7.2h-68.8c-4.8 0-8.8-2.4-12-6.4-35.2-49.6-82.4-89.6-140.8-120-67.2-33.6-147.2-50.4-236.8-50.4-116.8 0-212.8 33.6-284 100.8-72 68.8-108.8 166.4-108.8 288.8 0 114.4 37.6 209.6 112.8 284C314.4 738.4 408.8 776 521.6 776c105.6 0 191.2-31.2 255.2-92.8 60-60 90.4-135.2 90.4-224 0-75.2-23.2-142.4-68-199.2-38.4-47.2-76-70.4-112-70.4-22.4 0-24 8.8-24 19.2 0 18.4 4 40.8 13.6 67.2l89.6 339.2c2.4 8-2.4 15.2-10.4 17.6-0.8 0-2.4 0.8-4 0.8h-62.4c-6.4 0-12-4-13.6-10.4l-9.6-35.2c-24.8 45.6-65.6 68.8-120 68.8-78.4 0-146.4-35.2-204-103.2-60-68.8-91.2-155.2-91.2-256 0-56 16.8-102.4 49.6-139.2 32.8-36.8 77.6-56 132.8-56 58.4 0 110.4 24 155.2 70.4 15.2-55.2 56.8-68 91.2-68 65.6 0 128 35.2 184.8 105.6C923.2 284 952 368 952 459.2c0 113.6-37.6 208.8-111.2 283.2C762.4 820.8 656 860.8 524.8 860.8 383.2 860.8 264 813.6 171.2 720 78.4 628.8 32 515.2 32 381.6c0-142.4 45.6-258.4 135.2-345.6 89.6-85.6 208-128.8 352.8-128.8 102.4 0 196.8 21.6 279.2 64 80.8 40.8 144.8 99.2 190.4 173.6 3.2 4 3.2 9.6 0.8 14.4"  horiz-adv-x="1024" />

    
    <glyph glyph-name="empty_fill" unicode="&#58992;" d="M900 738.4l-156.8-22.4L728 820.8c-1.6 12-8 23.2-17.6 29.6-20 15.2-51.2 13.6-68 11.2L327.2 818.4c-57.6-8-74.4-38.4-71.2-63.2l13.6-96.8 0.8-8L176 636.8l-63.2-8.8c-21.6-2.4-37.6-22.4-34.4-44 2.4-21.6 22.4-37.6 44-34.4h1.6l29.6 4 22.4 3.2 5.6 0.8 63.2 8.8 79.2 11.2 90.4 12.8L652.8 624l238.4 33.6 20 2.4c21.6 3.2 36.8 23.2 33.6 44.8s-23.2 36.8-44.8 33.6zM375.2 420c0 21.6 17.6 40 40 40 21.6 0 40-17.6 40-40v-260.8c0-21.6-17.6-40-40-40-21.6 0-40 17.6-40 40V420z m238.4 0c0 21.6 17.6 40 40 40 21.6 0 40-17.6 40-40v-260.8c0-21.6-17.6-40-40-40-21.6 0-40 17.6-40 40V420z m-436.8 50.4v-487.2c0-25.6 12-48 31.2-62.4 13.6-10.4 29.6-16.8 48-16.8h555.2c17.6 0 34.4 5.6 48 16.8 19.2 14.4 31.2 36.8 31.2 62.4V494.4H176l0.8-24z"  horiz-adv-x="1024" />

    
    <glyph glyph-name="empty" unicode="&#58993;" d="M613.6 420v-260.8c0-21.6 17.6-40 40-40s40 17.6 40 40V420c0 21.6-17.6 40-40 40s-40-18.4-40-40m-238.4 0v-260.8c0-21.6 17.6-40 40-40s40 17.6 40 40V420c0 21.6-17.6 40-40 40s-40-18.4-40-40m-25.6 240.8l-11.2 78.4L652.8 784l11.2-78.4-314.4-44.8z m550.4 77.6l-156.8-22.4L728 820.8c-1.6 12-8 23.2-17.6 30.4-20 15.2-51.2 13.6-68 11.2L327.2 818.4c-57.6-8-74.4-38.4-71.2-63.2l14.4-104.8-156.8-22.4c-21.6-2.4-37.6-22.4-34.4-44 2.4-21.6 22.4-37.6 44-34.4h1.6l56.8 8c-3.2-5.6-4.8-12-4.8-18.4V-16c0-44 35.2-79.2 79.2-79.2h555.2c44 0 79.2 35.2 79.2 79.2V539.2c0 21.6-17.6 40-40 40s-40-17.6-40-40V-16H255.2V539.2c0 10.4-4 20-11.2 27.2l665.6 93.6c21.6 3.2 36.8 23.2 33.6 44.8-2.4 21.6-22.4 36.8-44 33.6h0.8z"  horiz-adv-x="1024" />

    
    <glyph glyph-name="enterinto_fill" unicode="&#58994;" d="M659.2 335.2l-200-187.2c-16-15.2-41.6-14.4-56 1.6-15.2 16-14.4 41.6 1.6 56.8l168 157.6-167.2 150.4c-16.8 14.4-18.4 40-4 56.8s40 18.4 56.8 4l0.8-0.8 200-179.2c16.8-14.4 17.6-40 3.2-56-1.6-2.4-2.4-3.2-3.2-4M512 864C247.2 864 32 648.8 32 384s215.2-480 480-480 480 215.2 480 480S776.8 864 512 864"  horiz-adv-x="1024" />

    
    <glyph glyph-name="enterinto" unicode="&#58995;" d="M512-16c-220.8 0-400 179.2-400 400s179.2 400 400 400 400-179.2 400-400-179.2-400-400-400M512 864C247.2 864 32 648.8 32 384s215.2-480 480-480 480 215.2 480 480S776.8 864 512 864m-53.6-290.4c-16.8 14.4-41.6 13.6-56.8-3.2s-13.6-41.6 3.2-56.8l167.2-150.4-168-157.6c-16-15.2-16-40.8-0.8-56.8 15.2-15.2 39.2-16 55.2-1.6l200 187.2c16 15.2 16.8 40 1.6 56.8l-2.4 2.4-199.2 180z"  horiz-adv-x="1024" />

    
    <glyph glyph-name="evaluation_fill" unicode="&#58996;" d="M725.6 635.2c-36-6.4-76.8 7.2-103.2 32.8L516.8 773.6 425.6 672c-26.4-30.4-68.8-44-107.2-36.8l-123.2 22.4c-2.4-15.2-2.4-32-2.4-50.4 0-202.4 146.4-363.2 320-363.2 175.2 0 320 160 320 363.2 0 16-0.8 31.2-2.4 43.2 1.6 3.2-104.8-15.2-104.8-15.2zM472.8 168.8c-203.2 22.4-360 211.2-360 440 0 76.8 15.2 123.2 15.2 123.2 3.2 11.2 14.4 18.4 24 16l182.4-34.4c11.2-2.4 24.8 3.2 32.8 12l105.6 120c22.4 24 59.2 24.8 82.4 2.4l124-123.2c7.2-7.2 23.2-12.8 34.4-11.2l160.8 26.4c12 0.8 22.4-4.8 24.8-16 0 0 14.4-36 14.4-116 0-228.8-158.4-418.4-360-440v-224c0-22.4-18.4-40-40-40-22.4 0-40 18.4-40 40V168.8z m396 16c22.4 3.2 42.4-12.8 44-35.2 2.4-22.4-12.8-42.4-35.2-44h-0.8c-94.4-11.2-178.4-63.2-231.2-142.4-12.8-18.4-36.8-23.2-56-11.2-18.4 12.8-23.2 36.8-11.2 55.2 67.2 99.2 172 164 290.4 177.6z m-721.6-78.4c-22.4 2.4-38.4 22.4-36 43.2 2.4 22.4 22.4 38.4 43.2 36h0.8c118.4-14.4 223.2-79.2 288.8-176.8 12.8-18.4 7.2-43.2-12-56-18.4-12-43.2-7.2-55.2 11.2-51.2 78.4-135.2 131.2-229.6 142.4z m31.2 584.8l168.8-28 98.4 95.2 68 64.8 112.8-112.8 99.2-47.2 126.4 28 28.8-83.2-28.8-148-92.8-152.8-230.4-116L315.2 264l-120 120-44.8 139.2-8 150.4 36 17.6z"  horiz-adv-x="1024" />

    
    <glyph glyph-name="evaluation" unicode="&#58997;" d="M725.6 635.2c-36-6.4-76.8 7.2-103.2 32.8L516.8 773.6 425.6 672c-26.4-30.4-68.8-44-107.2-36.8l-123.2 22.4c-2.4-15.2-2.4-32-2.4-50.4 0-202.4 146.4-363.2 320-363.2 175.2 0 320 160 320 363.2 0 16-0.8 31.2-2.4 43.2 1.6 3.2-104.8-15.2-104.8-15.2zM472.8 168.8c-203.2 22.4-360 211.2-360 440 0 76.8 15.2 123.2 15.2 123.2 3.2 11.2 14.4 18.4 24 16l182.4-34.4c11.2-2.4 24.8 3.2 32.8 12l105.6 120c22.4 24 59.2 24.8 82.4 2.4l124-123.2c7.2-7.2 23.2-12.8 34.4-11.2l160.8 26.4c12 0.8 22.4-4.8 24.8-16 0 0 14.4-36 14.4-116 0-228.8-158.4-418.4-360-440v-224c0-22.4-18.4-40-40-40-22.4 0-40 18.4-40 40V168.8z m396 16c22.4 3.2 42.4-12.8 44-35.2 2.4-22.4-12.8-42.4-35.2-44h-0.8c-94.4-11.2-178.4-63.2-231.2-142.4-12.8-18.4-36.8-23.2-56-11.2-18.4 12.8-23.2 36.8-11.2 55.2 67.2 99.2 172 164 290.4 177.6z m-721.6-78.4c-22.4 2.4-38.4 22.4-36 43.2 2.4 22.4 22.4 38.4 43.2 36h0.8c118.4-14.4 223.2-79.2 288.8-176.8 12.8-18.4 7.2-43.2-12-56-18.4-12-43.2-7.2-55.2 11.2-51.2 78.4-135.2 131.2-229.6 142.4z"  horiz-adv-x="1024" />

    
    <glyph glyph-name="failure_fill" unicode="&#58998;" d="M512 864C247.2 864 32 648.8 32 384s215.2-480 480-480 480 215.2 480 480S776.8 864 512 864z m186.4-732c-60.8 80-120 160.8-183.2 244.8-75.2-79.2-135.2-160-187.2-249.6-24 20-47.2 40-72.8 60 38.4 42.4 74.4 83.2 111.2 123.2 28 32 56.8 61.6 88 92 12.8 12.8 12 20.8-0.8 32.8-63.2 57.6-127.2 116.8-190.4 175.2 24 31.2 28 34.4 62.4 8.8 60-43.2 119.2-88.8 176.8-135.2 16-12.8 24.8-14.4 40 0 60 56 126.4 104 200.8 142.4 4.8-8.8 8.8-16.8 14.4-23.2-64-58.4-128.8-114.4-192.8-172C632.8 352 699.2 274.4 768 196c-27.2-24-49.6-45.6-69.6-64z"  horiz-adv-x="1024" />

    
    <glyph glyph-name="failure" unicode="&#58999;" d="M960.8 551.2c-19.2 52-47.2 99.2-83.2 142.4-18.4 20.8-51.2 24-72 5.6s-24-51.2-6.4-72c58.4-68.8 90.4-155.2 90.4-244.8 0-208.8-170.4-379.2-379.2-379.2S132 173.6 132 383.2s170.4 379.2 379.2 379.2c60 0 116.8-14.4 171.2-40 24.8-12.8 56-2.4 68.8 22.4 12.8 24.8 2.4 56-21.6 68.8C660.8 846.4 588 864 512 864c-64 0-128-12.8-187.2-37.6-56.8-24-108-59.2-152.8-102.4S92.8 628.8 69.6 571.2C44.8 512 32 448 32 384s12.8-128 37.6-187.2c24-56.8 59.2-108 102.4-152.8 43.2-44 95.2-79.2 152.8-102.4C384-83.2 447.2-96 512-96s128 12.8 187.2 38.4c56.8 24 108.8 59.2 152.8 102.4 44 44 79.2 95.2 102.4 152.8C979.2 256 992 319.2 992 384c0 56-11.2 112.8-31.2 167.2zM768 197.6c-27.2-24-51.2-46.4-71.2-64-60.8 80-120 160.8-183.2 244.8-75.2-79.2-135.2-160-187.2-250.4-24 20-47.2 40-72.8 60C292 231.2 328 272 364.8 312c28 32 56.8 62.4 88 92 12.8 12.8 12 20.8-0.8 32.8-63.2 58.4-127.2 116.8-190.4 175.2 24 31.2 28 34.4 62.4 8.8 60-43.2 119.2-88.8 176.8-135.2 16-12.8 24.8-14.4 40 0 60 56 126.4 104 200.8 142.4 4.8-8.8 8.8-16.8 14.4-23.2-63.2-56.8-127.2-112.8-191.2-171.2 68-80 135.2-157.6 203.2-236z"  horiz-adv-x="1024" />

    
    <glyph glyph-name="feedback" unicode="&#59000;" d="M752 64.8c-68.8-52-153.6-80.8-240-80.8s-171.2 28-240 80.8C175.2 137.6 112 253.6 112 384c0 220.8 179.2 400 400 400s400-179.2 400-400c0-130.4-63.2-246.4-160-319.2M512 864C247.2 864 32 648.8 32 384c0-177.6 96.8-332 240-415.2 72.8-42.4 156-64.8 240-64.8s167.2 22.4 240 64.8c143.2 83.2 240 237.6 240 415.2 0 264.8-215.2 480-480 480m160-344.8c0 80-72 144.8-160 144.8s-160-64.8-160-144.8v-19.2c0-22.4 17.6-40 40-40s40 17.6 40 40v19.2c0 36 36 64.8 80 64.8s80-28.8 80-64.8v-61.6c0-1.6-0.8-39.2-49.6-73.6-12.8-8.8-26.4-16-40-22.4-17.6-4-29.6-20-30.4-38.4v-46.4c0-22.4 17.6-40 40-40s40 17.6 40 40V296c52.8 25.6 82.4 58.4 98.4 87.2 23.2 40.8 21.6 74.4 20.8 76l0.8 60zM512 184c-22.4 0-40-17.6-40-40s17.6-40 40-40 40 17.6 40 40-17.6 40-40 40"  horiz-adv-x="1024" />

    
    <glyph glyph-name="feedback_fill" unicode="&#59001;" d="M552 296.8v-19.2c0-22.4-17.6-40-40-40s-40 17.6-40 40v46.4c0 18.4 12.8 33.6 30.4 38.4C592 400 592 455.2 592 457.6v61.6c0 36-36 64.8-80 64.8s-80-28.8-80-64.8v-19.2c0-22.4-17.6-40-40-40s-40 17.6-40 40v19.2c0 80 72 144.8 160 144.8s160-64.8 160-144.8v-59.2c0-1.6 5.6-100.8-120-163.2M512 104c-22.4 0-40 17.6-40 40s17.6 40 40 40 40-17.6 40-40-17.6-40-40-40m0 760C247.2 864 32 648.8 32 384s215.2-480 480-480 480 215.2 480 480S776.8 864 512 864"  horiz-adv-x="1024" />

    
    <glyph glyph-name="flag" unicode="&#59003;" d="M220 347.2V780.8l561.6-0.8-156.8-216 156.8-216.8H220z m652.8 16.8L728 564l144.8 200c16 21.6 19.2 46.4 8 67.2-10.4 20.8-32 32.8-59.2 32.8H220c-45.6 0-83.2-36.8-83.2-83.2v-835.2c0-23.2 18.4-41.6 41.6-41.6s41.6 18.4 41.6 41.6V264h601.6c27.2 0 48.8 12 60 32.8 10.4 20.8 7.2 44.8-8.8 67.2z"  horiz-adv-x="1024" />

    
    <glyph glyph-name="flag_fill" unicode="&#59004;" d="M872.8 364L728 564l144.8 200c16 21.6 19.2 46.4 8 67.2-10.4 20.8-32 32.8-59.2 32.8H220c-46.4 0-83.2-36.8-83.2-83.2v-835.2c0-23.2 18.4-41.6 41.6-41.6 23.2 0 41.6 18.4 41.6 41.6V264h601.6c27.2 0 48.8 12 60 32.8 10.4 20.8 7.2 44.8-8.8 67.2"  horiz-adv-x="1024" />

    
    <glyph glyph-name="flashlight_fill" unicode="&#59005;" d="M905.6 460.8c-4.8 13.6-17.6 24-32 25.6l-293.6 36 72.8 292c5.6 20.8-7.2 42.4-28.8 48-14.4 3.2-29.6-0.8-39.2-12L126.4 348c-14.4-16-13.6-40.8 2.4-56 6.4-5.6 13.6-8.8 21.6-10.4l291.2-36-75.2-292c-5.6-21.6 7.2-42.4 28.8-48 14.4-3.2 28.8 0.8 39.2 11.2l463.2 503.2c9.6 11.2 12.8 26.4 8 40.8"  horiz-adv-x="1024" />

    
    <glyph glyph-name="flashlight" unicode="&#59006;" d="M483.2 86.4l47.2 183.2c5.6 20.8-7.2 42.4-28.8 48-1.6 0.8-3.2 0.8-4.8 0.8l-260 32 301.6 330.4-45.6-183.2c-5.6-21.6 7.2-42.4 28.8-48 1.6 0 3.2-0.8 4.8-0.8l261.6-32-304.8-330.4z m422.4 374.4c-4.8 13.6-17.6 24-32 25.6l-293.6 36 72.8 292c5.6 21.6-8 42.4-28.8 48-14.4 3.2-28.8-0.8-38.4-12L126.4 348c-14.4-16-13.6-40.8 2.4-56 6.4-5.6 13.6-8.8 21.6-10.4l291.2-36-75.2-292c-5.6-20.8 7.2-42.4 28.8-48 14.4-4 28.8 0.8 39.2 11.2l463.2 503.2c9.6 11.2 12.8 26.4 8 40.8z"  horiz-adv-x="1024" />

    
    <glyph glyph-name="flip" unicode="&#59007;" d="M396.8 384c0 63.2 51.2 114.4 114.4 114.4S626.4 447.2 626.4 384 575.2 269.6 512 269.6 396.8 320.8 396.8 384m305.6 0c0 105.6-85.6 191.2-191.2 191.2S320 489.6 320 384s85.6-191.2 191.2-191.2S702.4 278.4 702.4 384m278.4-68.8c-13.6 12.8-33.6 14.4-48.8 3.2V728c0 42.4-33.6 76.8-76 76.8H167.2c-42.4 0-76-34.4-76-76v-77.6c0-20.8 16.8-38.4 38.4-38.4s38.4 16.8 38.4 38.4l-0.8 76.8H856v-408c-14.4 8.8-33.6 7.2-46.4-5.6-15.2-15.2-15.2-39.2 0-54.4l58.4-58.4c15.2-15.2 39.2-15.2 54.4 0l58.4 58.4c15.2 16 15.2 40 0 55.2m-87.2-160.8c-20.8 0-38.4-16.8-38.4-38.4v-76h-688V443.2c5.6-4 12.8-6.4 20-6.4 20.8 0 38.4 16.8 38.4 38.4 0 10.4-4 20-11.2 27.2L156 560c-15.2 15.2-39.2 15.2-54.4 0l-58.4-58.4c-15.2-15.2-15.2-39.2 0-54.4 12.8-12.8 32.8-14.4 48-4V40c0-42.4 34.4-76.8 76-76.8H856c42.4 0 76 34.4 76 76.8v76.8c0 20.8-16.8 37.6-38.4 37.6"  horiz-adv-x="1024" />

    
    <glyph glyph-name="flip_fill" unicode="&#59008;" d="M702.4 384c0 105.6-85.6 191.2-191.2 191.2S320 489.6 320 384s85.6-191.2 191.2-191.2S702.4 278.4 702.4 384m278.4-68.8c-13.6 12.8-33.6 14.4-48.8 3.2V728c0 42.4-33.6 76.8-76 76.8H167.2c-42.4 0-76-34.4-76-76v-77.6c0-20.8 16.8-38.4 38.4-38.4s38.4 16.8 38.4 38.4v77.6h688V320c-14.4 8.8-33.6 6.4-46.4-5.6-15.2-15.2-15.2-39.2 0-53.6l58.4-58.4c15.2-15.2 39.2-15.2 53.6 0l58.4 58.4c16 15.2 16 39.2 0.8 54.4m-87.2-160.8c-20.8 0-38.4-16.8-38.4-38.4v-76h-688V443.2c5.6-4 12.8-6.4 20-6.4 20.8 0 38.4 16.8 38.4 38.4 0 10.4-4 20-11.2 27.2L156 560c-15.2 15.2-39.2 15.2-54.4 0l-58.4-58.4c-15.2-15.2-15.2-39.2 0-53.6 12.8-12.8 32.8-13.6 48-4V40c0-42.4 34.4-76.8 76-76.8H856c42.4 0 76 34.4 76 76v76.8c0 21.6-17.6 38.4-38.4 38.4"  horiz-adv-x="1024" />

    
    <glyph glyph-name="gift_fill" unicode="&#59009;" d="M852.8 399.2H633.6V-96h99.2c88 0 159.2 71.2 159.2 159.2V360c0 20.8-18.4 39.2-39.2 39.2z m-385.6 0h88V-96h-88V399.2z m-336-39.2v-296.8c0-88 71.2-159.2 159.2-159.2h99.2V399.2H170.4c-22.4 0-39.2-18.4-39.2-39.2z m741.6 260H787.2c51.2 75.2 55.2 160 6.4 208.8-59.2 59.2-170.4 41.6-252-40.8-8.8-8.8-18.4-19.2-24.8-28.8-8 10.4-16 20-24.8 28.8C409.6 870.4 298.4 888 239.2 829.6c-48.8-48.8-44.8-135.2 6.4-208.8H151.2C86.4 620 32 567.2 32 501.6v-23.2c0-19.2 15.2-34.4 34.4-34.4h891.2c19.2 0 34.4 15.2 34.4 34.4v23.2c0 65.6-53.6 118.4-119.2 118.4zM596.8 733.6c54.4 54.4 118.4 64.8 142.4 40.8s12.8-88-40.8-142.4c-4-4-8.8-8-12.8-12h-120c0.8 19.2-2.4 39.2-8 59.2 8.8 18.4 21.6 36 39.2 54.4zM334.4 632c-54.4 54.4-64.8 118.4-40.8 142.4s88 12.8 142.4-40.8c16.8-16.8 30.4-36 39.2-54.4-6.4-20-8.8-40-8-59.2h-120c-4 4-8.8 8-12.8 12z"  horiz-adv-x="1024" />

    
    <glyph glyph-name="gift" unicode="&#59010;" d="M963.2 376h-384c-16 0-28.8 12.8-28.8 28.8s12.8 28.8 28.8 28.8h355.2V504c0 28.8-24 52-52 52H142.4c-28.8 0-52-24-52-52v-70.4h362.4c16 0 28.8-12.8 28.8-28.8S468.8 376 452.8 376h-392c-16 0-28.8 12.8-28.8 28.8V504c0 60.8 48.8 110.4 110.4 110.4h740c60.8 0 110.4-48.8 110.4-110.4v-99.2c-0.8-16-13.6-28.8-29.6-28.8z m-224.8-472H286.4c-84 0-151.2 68-151.2 151.2V291.2c0 16 12.8 28.8 28.8 28.8s28.8-12.8 28.8-28.8V56c0-52 42.4-94.4 93.6-94.4h452.8c52 0 94.4 42.4 94.4 94.4V404.8c0 16 12.8 28.8 28.8 28.8s28.8-12.8 28.8-28.8V56c-0.8-84-68.8-152-152.8-152z m-141.6 0H427.2c-16 0-28.8 12.8-28.8 28.8v472c0 16 12.8 28.8 28.8 28.8h170.4c16 0 28.8-12.8 28.8-28.8v-472c0-16-13.6-28.8-29.6-28.8zM456-37.6h112V376H456v-413.6z m62.4 593.6H331.2c-5.6 0-12 2.4-16.8 6.4-11.2 8-20.8 16.8-31.2 27.2-36.8 36.8-62.4 80.8-71.2 124-10.4 48 0 90.4 28.8 118.4 28 28 70.4 39.2 118.4 28.8 44-8.8 88-33.6 124-71.2C551.2 720.8 576 632 543.2 571.2c-4.8-8.8-15.2-15.2-24.8-15.2z m-177.6 58.4h156.8c8 37.6-14.4 92-56 133.6-28 28-63.2 48-95.2 55.2-16 3.2-47.2 6.4-65.6-12.8-19.2-19.2-16-48.8-12.8-66.4 7.2-32 27.2-67.2 55.2-95.2l17.6-14.4z m361.6-58.4H516c-11.2 0-20 5.6-24.8 15.2-32 60-8 150.4 60 217.6C588 826.4 632 851.2 675.2 860c48 10.4 90.4 0 118.4-28.8 28-28 39.2-69.6 28.8-117.6-8.8-44-34.4-88-71.2-124-10.4-10.4-20-19.2-31.2-27.2-4.8-4-11.2-6.4-17.6-6.4z m-167.2 58.4h156.8c6.4 4.8 12 10.4 16.8 16 28 28 48 63.2 55.2 95.2 3.2 16 5.6 47.2-12.8 66.4s-48.8 16-66.4 12.8c-32-7.2-67.2-27.2-95.2-55.2-40.8-43.2-62.4-97.6-54.4-135.2z"  horiz-adv-x="1024" />

    
    <glyph glyph-name="grade" unicode="&#59011;" d="M992 772.8v-21.6c-27.2 0-73.6-7.2-87.2-20-12.8-12.8-28.8-41.6-45.6-88l-256.8-647.2H438.4L155.2 629.6C132.8 680 112.8 712.8 96.8 728c-16 15.2-37.6 23.2-64.8 23.2v21.6h442.4v-21.6c-33.6 0-87.2-3.2-99.2-8s-17.6-16.8-17.6-35.2c0-11.2 5.6-29.6 19.2-59.2 12.8-28.8 21.6-49.6 28-64.8l173.6-388.8 169.6 422.4 15.2 44.8c4.8 16.8 7.2 28 7.2 35.2 0 21.6-7.2 36-23.2 43.2-15.2 7.2-80 9.6-105.6 9.6v21.6c0 0.8 350.4 0.8 350.4 0.8z"  horiz-adv-x="1024" />

    
    <glyph glyph-name="gradeA_fill" unicode="&#59012;" d="M734.4-48.8l-193.6 64c-8.8 2.4-18.4 4-29.6 4-11.2 0-20-2.4-29.6-4l-193.6-64v130.4c-15.2 8.8-31.2 18.4-44 28.8v-162.4c0-24 20-44 44-44 4 0 8.8 0 12.8 1.6l193.6 64c4 2.4 8.8 2.4 12.8 2.4s8.8 0 12.8-2.4l193.6-64c4-1.6 8.8-1.6 12.8-1.6 24 0 44 20 44 44V109.6c-12.8-11.2-29.6-20-44-28.8v-131.2c3.2 1.6 8 1.6 8 1.6zM512 864C292 864 112 684 112 464.8s180-399.2 400-399.2 400 180 400 399.2S732 864 512 864z m0-754.4c-195.2 0-356 160-356 355.2S316.8 820 512 820s356-160 356-355.2S707.2 109.6 512 109.6z m0 665.6c-171.2 0-311.2-140-311.2-309.6 0-171.2 140-311.2 311.2-311.2s311.2 140 311.2 310.4c0 171.2-140 310.4-311.2 310.4z m0-576c-147.2 0-267.2 120-267.2 266.4s120 266.4 267.2 266.4 267.2-120 267.2-266.4-120-266.4-267.2-266.4zM507.2 587.2c-4-20-10.4-40-16.8-60l-35.2-92h108l-33.6 87.2c-10.4 26.4-17.6 48.8-22.4 64.8zM512 773.6c-172 0-312-139.2-312-309.6s140-310.4 312-310.4 312 139.2 312 310.4-140 309.6-312 309.6z m100.8-468l-37.6 95.2H441.6l-35.2-95.2h-43.2l121.6 315.2h45.6l129.6-315.2h-47.2z"  horiz-adv-x="1024" />

    
    <glyph glyph-name="gradeA" unicode="&#59013;" d="M734.4-48.8l-193.6 64c-8.8 2.4-18.4 4-29.6 4-11.2 0-20-2.4-29.6-4l-193.6-64v130.4c-15.2 8.8-31.2 18.4-44 28.8v-162.4c0-24 20-44 44-44 4 0 8.8 0 12.8 1.6l193.6 64c4 2.4 8.8 2.4 12.8 2.4s8.8 0 12.8-2.4l193.6-64c4-1.6 8.8-1.6 12.8-1.6 24 0 44 20 44 44V109.6c-12.8-11.2-29.6-20-44-28.8v-131.2c3.2 1.6 8 1.6 8 1.6zM512 864C292 864 112 684 112 464.8s180-399.2 400-399.2 400 180 400 399.2S732 864 512 864z m0-754.4c-195.2 0-356 160-356 355.2S316.8 820 512 820s356-160 356-355.2S707.2 109.6 512 109.6z m0 665.6c-171.2 0-311.2-140-311.2-309.6 0-171.2 140-311.2 311.2-311.2s311.2 140 311.2 310.4c0 171.2-140 310.4-311.2 310.4z m0-576c-147.2 0-267.2 120-267.2 266.4s120 266.4 267.2 266.4 267.2-120 267.2-266.4-120-266.4-267.2-266.4zM364 316.8L485.6 632h45.6l129.6-315.2h-48l-37.6 95.2H442.4l-35.2-95.2h-43.2z m90.4 129.6h108l-33.6 87.2c-10.4 25.6-16.8 48-22.4 64.8-4-20-10.4-40-16.8-60l-35.2-92z"  horiz-adv-x="1024" />

    
    <glyph glyph-name="gradeB_fill" unicode="&#59014;" d="M734.4-48.8l-193.6 64c-8.8 2.4-18.4 4-29.6 4-11.2 0-20-2.4-29.6-4l-193.6-64v130.4c-15.2 8.8-31.2 18.4-44 28.8v-162.4c0-24 20-44 44-44 4 0 8.8 0 12.8 1.6l193.6 64c4 2.4 8.8 2.4 12.8 2.4s8.8 0 12.8-2.4l193.6-64c4-1.6 8.8-1.6 12.8-1.6 24 0 44 20 44 44V109.6c-12.8-11.2-29.6-20-44-28.8v-131.2c3.2 1.6 8 1.6 8 1.6zM512 864C292 864 112 684 112 464.8s180-399.2 400-399.2 400 180 400 399.2S732 864 512 864z m0-754.4c-195.2 0-356 160-356 355.2S316.8 820 512 820s356-160 356-355.2S707.2 109.6 512 109.6z m0 665.6c-171.2 0-311.2-140-311.2-309.6 0-171.2 140-311.2 311.2-311.2s311.2 140 311.2 310.4c0 171.2-140 310.4-311.2 310.4z m0-576c-147.2 0-267.2 120-267.2 266.4s120 266.4 267.2 266.4 267.2-120 267.2-266.4-120-266.4-267.2-266.4zM544 493.6c11.2 3.2 19.2 8 24 16 4.8 8 8 16 8 28 0 10.4-3.2 20-8 28s-12 12.8-20.8 16c-8.8 3.2-24.8 4-48 4h-63.2v-96H504c18.4 0 31.2 1.6 40 4z m10.4-44c-11.2 4-26.4 4.8-46.4 4.8h-73.6V344h79.2c12.8 0 23.2 0 28 1.6 10.4 2.4 18.4 4.8 24 8.8 6.4 4 12 10.4 16 18.4 4 8 6.4 16.8 6.4 27.2 0 12-3.2 22.4-8.8 31.2-6.4 9.6-13.6 16-24.8 18.4zM512 773.6c-172 0-312-139.2-312-309.6s140-310.4 312-310.4 312 139.2 312 310.4-140 309.6-312 309.6z m111.2-417.6c-6.4-12.8-14.4-22.4-23.2-28.8-8.8-7.2-20.8-12-34.4-16-14.4-4-31.2-4.8-51.2-4.8H392.8V621.6H512c24 0 43.2-3.2 58.4-10.4 15.2-5.6 26.4-16 34.4-28.8s12-27.2 12-42.4c0-12.8-4-26.4-11.2-38.4s-18.4-20.8-33.6-28.8c19.2-6.4 34.4-15.2 44-28.8 10.4-12.8 15.2-28.8 15.2-48 0-14.4-3.2-27.2-8-40z"  horiz-adv-x="1024" />

    
    <glyph glyph-name="gradeB" unicode="&#59015;" d="M734.4-48.8l-193.6 64c-8.8 2.4-18.4 4-29.6 4-11.2 0-20-2.4-29.6-4l-193.6-64v130.4c-15.2 8.8-31.2 18.4-44 28.8v-162.4c0-24 20-44 44-44 4 0 8.8 0 12.8 1.6l193.6 64c4 2.4 8.8 2.4 12.8 2.4s8.8 0 12.8-2.4l193.6-64c4-1.6 8.8-1.6 12.8-1.6 24 0 44 20 44 44V109.6c-12.8-11.2-29.6-20-44-28.8v-131.2c3.2 1.6 8 1.6 8 1.6zM512 864C292 864 112 684 112 464.8s180-399.2 400-399.2 400 180 400 399.2S732 864 512 864z m0-754.4c-195.2 0-356 160-356 355.2S316.8 820 512 820s356-160 356-355.2S707.2 109.6 512 109.6z m0 665.6c-171.2 0-311.2-140-311.2-309.6 0-171.2 140-311.2 311.2-311.2s311.2 140 311.2 310.4c0 171.2-140 310.4-311.2 310.4z m0-576c-147.2 0-267.2 120-267.2 266.4s120 266.4 267.2 266.4 267.2-120 267.2-266.4-120-266.4-267.2-266.4zM392 316.8V631.2h119.2c24 0 43.2-3.2 58.4-10.4 15.2-6.4 26.4-16 34.4-28.8s12-27.2 12-42.4c0-12.8-4-25.6-11.2-37.6-7.2-12-18.4-20.8-33.6-28.8 19.2-5.6 34.4-15.2 44-28.8 10.4-12.8 15.2-28.8 15.2-48 0-15.2-3.2-28-8.8-40.8C616 352 608 343.2 598.4 336c-8.8-7.2-20.8-12-34.4-16-14.4-4-31.2-4.8-51.2-4.8H392v1.6z m42.4 182.4h68.8c18.4 0 32 0.8 40 4 11.2 3.2 19.2 8 24 16s8 16 8 28c0 10.4-3.2 20-8 28s-12 12.8-20.8 16c-8.8 3.2-24.8 4-48 4h-63.2c-0.8 0-0.8-96-0.8-96z m0-145.6h78.4c12.8 0 23.2 0 28 2.4 10.4 1.6 18.4 4.8 24 8.8 6.4 4 12 10.4 16 18.4 4 8 6.4 16.8 6.4 27.2 0 12-3.2 22.4-8.8 31.2-6.4 8.8-14.4 15.2-24.8 18.4-11.2 4-26.4 4.8-46.4 4.8h-73.6v-110.4h0.8z"  horiz-adv-x="1024" />

    
    <glyph glyph-name="gradeC" unicode="&#59016;" d="M734.4-48.8l-193.6 64c-8.8 2.4-18.4 4-29.6 4-11.2 0-20-2.4-29.6-4l-193.6-64v130.4c-15.2 8.8-31.2 18.4-44 28.8v-162.4c0-24 20-44 44-44 4 0 8.8 0 12.8 1.6l193.6 64c4 2.4 8.8 2.4 12.8 2.4s8.8 0 12.8-2.4l193.6-64c4-1.6 8.8-1.6 12.8-1.6 24 0 44 20 44 44V109.6c-12.8-11.2-29.6-20-44-28.8v-131.2c3.2 1.6 8 1.6 8 1.6zM512 864C292 864 112 684 112 464.8s180-399.2 400-399.2 400 180 400 399.2S732 864 512 864z m0-754.4c-195.2 0-356 160-356 355.2S316.8 820 512 820s356-160 356-355.2S707.2 109.6 512 109.6z m0 665.6c-171.2 0-311.2-140-311.2-309.6 0-171.2 140-311.2 311.2-311.2s311.2 140 311.2 310.4c0 171.2-140 310.4-311.2 310.4z m0-576c-147.2 0-267.2 120-267.2 266.4s120 266.4 267.2 266.4 267.2-120 267.2-266.4-120-266.4-267.2-266.4zM612.8 425.6l43.2-11.2c-8.8-35.2-24.8-62.4-48-80-23.2-18.4-52-28-85.6-28-35.2 0-63.2 7.2-85.6 20.8-22.4 14.4-38.4 35.2-50.4 60.8-11.2 27.2-16.8 56-16.8 86.4 0 34.4 6.4 63.2 19.2 88 12.8 24.8 31.2 44 55.2 56.8 24 12.8 50.4 19.2 78.4 19.2 32 0 59.2-8 81.6-24.8 22.4-16.8 37.6-39.2 46.4-68.8L608 535.2c-7.2 23.2-18.4 40.8-33.6 51.2s-32 18.4-53.6 18.4c-24.8 0-45.6-6.4-62.4-18.4-16.8-12-28-28-35.2-48s-10.4-40.8-10.4-62.4c0-27.2 4-51.2 12-72 8-20 20-36 37.6-46.4 16.8-10.4 35.2-15.2 55.2-15.2 24 0 44 7.2 61.6 20.8 16.8 14.4 27.2 36 33.6 62.4z"  horiz-adv-x="1024" />

    
    <glyph glyph-name="gradeC_fill" unicode="&#59017;" d="M734.4-48.8l-193.6 64c-8.8 2.4-18.4 4-29.6 4-11.2 0-20-2.4-29.6-4l-193.6-64v130.4c-15.2 8.8-31.2 18.4-44 28.8v-162.4c0-24 20-44 44-44 4 0 8.8 0 12.8 1.6l193.6 64c4 2.4 8.8 2.4 12.8 2.4s8.8 0 12.8-2.4l193.6-64c4-1.6 8.8-1.6 12.8-1.6 24 0 44 20 44 44V109.6c-12.8-11.2-29.6-20-44-28.8v-131.2c3.2 1.6 8 1.6 8 1.6zM512 864C292 864 112 684 112 464.8s180-399.2 400-399.2 400 180 400 399.2S732 864 512 864z m0-754.4c-195.2 0-356 160-356 355.2S316.8 820 512 820s356-160 356-355.2S707.2 109.6 512 109.6z m0 665.6c-171.2 0-311.2-140-311.2-309.6 0-171.2 140-311.2 311.2-311.2s311.2 140 311.2 310.4c0 171.2-140 310.4-311.2 310.4z m0-576c-147.2 0-267.2 120-267.2 266.4s120 266.4 267.2 266.4 267.2-120 267.2-266.4-120-266.4-267.2-266.4zM512 773.6c-172 0-312-139.2-312-309.6s140-310.4 312-310.4 312 139.2 312 310.4-140 309.6-312 309.6z m96-448c-23.2-18.4-52-28-85.6-28-35.2 0-63.2 7.2-85.6 20.8s-38.4 35.2-50.4 60.8c-11.2 27.2-16.8 56-16.8 85.6 0 34.4 6.4 63.2 19.2 88 12.8 24.8 31.2 44 55.2 56.8 24 12.8 50.4 19.2 78.4 19.2 32 0 59.2-8 81.6-24.8 22.4-16.8 37.6-39.2 46.4-68.8L608 525.6c-7.2 23.2-18.4 40.8-33.6 51.2s-32 17.6-53.6 17.6c-24.8 0-45.6-5.6-62.4-17.6s-28-28-35.2-48c-7.2-20-10.4-40.8-10.4-62.4 0-27.2 4-51.2 12-72 8-20 20-36 37.6-46.4s35.2-15.2 55.2-15.2c24 0 44 7.2 61.6 20.8 16 14.4 27.2 35.2 33.6 62.4l43.2-11.2c-9.6-33.6-24.8-60.8-48-79.2z"  horiz-adv-x="1024" />

    
    <glyph glyph-name="gradeD" unicode="&#59018;" d="M734.4-48.8l-193.6 64c-8.8 2.4-18.4 4-29.6 4-11.2 0-20-2.4-29.6-4l-193.6-64v130.4c-15.2 8.8-31.2 18.4-44 28.8v-162.4c0-24 20-44 44-44 4 0 8.8 0 12.8 1.6l193.6 64c4 2.4 8.8 2.4 12.8 2.4s8.8 0 12.8-2.4l193.6-64c4-1.6 8.8-1.6 12.8-1.6 24 0 44 20 44 44V109.6c-12.8-11.2-29.6-20-44-28.8v-131.2c3.2 1.6 8 1.6 8 1.6zM512 864C292 864 112 684 112 464.8s180-399.2 400-399.2 400 180 400 399.2S732 864 512 864z m0-754.4c-195.2 0-356 160-356 355.2S316.8 820 512 820s356-160 356-355.2S707.2 109.6 512 109.6z m0 665.6c-171.2 0-311.2-140-311.2-309.6 0-171.2 140-311.2 311.2-311.2s311.2 140 311.2 310.4c0 171.2-140 310.4-311.2 310.4z m0-576c-147.2 0-267.2 120-267.2 266.4s120 266.4 267.2 266.4 267.2-120 267.2-266.4-120-266.4-267.2-266.4zM380.8 316.8V631.2h108.8c24 0 43.2-2.4 56.8-4.8 18.4-4 33.6-12 46.4-23.2 16.8-14.4 29.6-32 37.6-54.4s12-47.2 12-75.2c0-24-3.2-44.8-8-64-4.8-19.2-12.8-34.4-20.8-46.4-8.8-12-18.4-21.6-29.6-28.8-10.4-7.2-23.2-12-38.4-16s-32-4.8-51.2-4.8H380.8v3.2z m41.6 36.8h67.2c20.8 0 37.6 2.4 49.6 6.4s20.8 8.8 28 16c10.4 9.6 18.4 23.2 23.2 40 6.4 16.8 8 36.8 8 60.8 0 32.8-4.8 57.6-16 76s-24 30.4-39.2 36c-11.2 3.2-29.6 4.8-53.6 4.8h-66.4v-240h-0.8z"  horiz-adv-x="1024" />

    
    <glyph glyph-name="gradeD_fill" unicode="&#59019;" d="M734.4-48.8l-193.6 64c-8.8 2.4-18.4 4-29.6 4-11.2 0-20-2.4-29.6-4l-193.6-64v130.4c-15.2 8.8-31.2 18.4-44 28.8v-162.4c0-24 20-44 44-44 4 0 8.8 0 12.8 1.6l193.6 64c4 2.4 8.8 2.4 12.8 2.4s8.8 0 12.8-2.4l193.6-64c4-1.6 8.8-1.6 12.8-1.6 24 0 44 20 44 44V109.6c-12.8-11.2-29.6-20-44-28.8v-131.2c3.2 1.6 8 1.6 8 1.6zM512 864C292 864 112 684 112 464.8s180-399.2 400-399.2 400 180 400 399.2S732 864 512 864z m0-754.4c-195.2 0-356 160-356 355.2S316.8 820 512 820s356-160 356-355.2S707.2 109.6 512 109.6z m0 665.6c-171.2 0-311.2-140-311.2-309.6 0-171.2 140-311.2 311.2-311.2s311.2 140 311.2 310.4c0 171.2-140 310.4-311.2 310.4z m0-576c-147.2 0-267.2 120-267.2 266.4s120 266.4 267.2 266.4 267.2-120 267.2-266.4-120-266.4-267.2-266.4zM544 580c-11.2 3.2-29.6 4.8-53.6 4.8H424v-240h66.4c20.8 0 37.6 1.6 49.6 6.4 12 4 20.8 8.8 28 16 10.4 10.4 18.4 23.2 23.2 40 6.4 16.8 8 36.8 8 60.8 0 32.8-4.8 58.4-16 76-10.4 17.6-24 29.6-39.2 36zM512 773.6c-172 0-312-139.2-312-309.6s140-310.4 312-310.4 312 139.2 312 310.4-140 309.6-312 309.6z m123.2-372.8c-4.8-19.2-12.8-33.6-20.8-46.4-8.8-12-18.4-22.4-29.6-28.8-10.4-7.2-23.2-12-38.4-16s-32-4.8-51.2-4.8H380.8V621.6h108.8c24 0 43.2-2.4 56.8-4.8 18.4-4 33.6-12 46.4-23.2 16.8-14.4 29.6-32 37.6-54.4s12-47.2 12-75.2c0.8-23.2-2.4-43.2-7.2-63.2z"  horiz-adv-x="1024" />

    
    <glyph glyph-name="gradeE_fill" unicode="&#59020;" d="M734.4-48.8l-193.6 64c-8.8 2.4-18.4 4-29.6 4-11.2 0-20-2.4-29.6-4l-193.6-64v130.4c-15.2 8.8-31.2 18.4-44 28.8v-162.4c0-24 20-44 44-44 4 0 8.8 0 12.8 1.6l193.6 64c4 2.4 8.8 2.4 12.8 2.4s8.8 0 12.8-2.4l193.6-64c4-1.6 8.8-1.6 12.8-1.6 24 0 44 20 44 44V109.6c-12.8-11.2-29.6-20-44-28.8v-131.2c3.2 1.6 8 1.6 8 1.6zM512 864C292 864 112 684 112 464.8s180-399.2 400-399.2 400 180 400 399.2S732 864 512 864z m0-754.4c-195.2 0-356 160-356 355.2S316.8 820 512 820s356-160 356-355.2S707.2 109.6 512 109.6z m0 665.6c-171.2 0-311.2-140-311.2-309.6 0-171.2 140-311.2 311.2-311.2s311.2 140 311.2 310.4c0 171.2-140 310.4-311.2 310.4z m0-576c-147.2 0-267.2 120-267.2 266.4s120 266.4 267.2 266.4 267.2-120 267.2-266.4-120-266.4-267.2-266.4zM512 773.6c-172 0-312-139.2-312-309.6s140-310.4 312-310.4 312 139.2 312 310.4-140 309.6-312 309.6z m119.2-466.4H394.4V620.8h228.8V584H436.8v-96h175.2v-36.8H436.8V344h194.4v-36.8z"  horiz-adv-x="1024" />

    
    <glyph glyph-name="gradeE" unicode="&#59021;" d="M734.4-48.8l-193.6 64c-8.8 2.4-18.4 4-29.6 4-11.2 0-20-2.4-29.6-4l-193.6-64v130.4c-15.2 8.8-31.2 18.4-44 28.8v-162.4c0-24 20-44 44-44 4 0 8.8 0 12.8 1.6l193.6 64c4 2.4 8.8 2.4 12.8 2.4s8.8 0 12.8-2.4l193.6-64c4-1.6 8.8-1.6 12.8-1.6 24 0 44 20 44 44V109.6c-12.8-11.2-29.6-20-44-28.8v-131.2c3.2 1.6 8 1.6 8 1.6zM512 864C292 864 112 684 112 464.8s180-399.2 400-399.2 400 180 400 399.2S732 864 512 864z m0-754.4c-195.2 0-356 160-356 355.2S316.8 820 512 820s356-160 356-355.2S707.2 109.6 512 109.6z m0 665.6c-171.2 0-311.2-140-311.2-309.6 0-171.2 140-311.2 311.2-311.2s311.2 140 311.2 310.4c0 171.2-140 310.4-311.2 310.4z m0-576c-147.2 0-267.2 120-267.2 266.4s120 266.4 267.2 266.4 267.2-120 267.2-266.4-120-266.4-267.2-266.4zM392.8 316.8V631.2h229.6v-36.8H435.2v-96h175.2v-36.8H435.2v-107.2h194.4v-36.8H392.8z"  horiz-adv-x="1024" />

    
    <glyph glyph-name="group" unicode="&#59022;" d="M918.4 26.4c-0.8-0.8-0.8-0.8-1.6-0.8l-663.2 1.6v136c0 6.4 7.2 17.6 13.6 20 1.6 0.8 180.8 79.2 318.4 79.2 136.8 0 316.8-78.4 319.2-80 6.4-2.4 12.8-12.8 12.8-20v-136zM476 492.8V613.6c0 71.2 57.6 128.8 128.8 129.6 71.2 0 128.8-58.4 128.8-129.6v-120.8c0-71.2-57.6-128.8-128.8-129.6-71.2 0-129.6 57.6-128.8 129.6z m457.6-241.6c-5.6 2.4-107.2 46.4-220 70.4 58.4 37.6 93.6 101.6 93.6 171.2V613.6c0 112-91.2 203.2-202.4 203.2-112 0-203.2-91.2-203.2-203.2v-120.8c0-68 33.6-128.8 85.6-165.6-124.8-21.6-243.2-73.6-248.8-76-33.6-13.6-59.2-52-59.2-88v-145.6h0.8c4.8-37.6 36.8-65.6 75.2-65.6h660.8c32.8 0 62.4 21.6 73.6 53.6l1.6 5.6v152c0.8 36.8-24.8 74.4-57.6 88z m-596.8 88h3.2c20 0 36.8 16.8 36.8 36.8s-16.8 36.8-36.8 36.8c-44 0-79.2 35.2-79.2 79.2V589.6c0 44 35.2 79.2 79.2 79.2 20 0 36.8 16.8 36.8 36.8s-16.8 36.8-36.8 36.8c-84.8 0-152.8-68.8-152.8-152.8v-97.6c0-37.6 14.4-72 36.8-98.4-72-22.4-136-57.6-147.2-64-26.4-12.8-45.6-42.4-45.6-72v-106.4c0-20 16.8-36.8 36.8-36.8s36.8 16.8 36.8 36.8V257.6c0.8 1.6 1.6 4 2.4 5.6 1.6 0.8 3.2 1.6 4 2.4 35.2 20.8 143.2 73.6 219.2 73.6 3.2-0.8 4.8 0 6.4 0"  horiz-adv-x="1024" />

    
    <glyph glyph-name="group_fill" unicode="&#59023;" d="M933.6 251.2c-5.6 2.4-107.2 46.4-220.8 70.4 58.4 37.6 93.6 101.6 93.6 171.2V613.6c0 112-91.2 203.2-202.4 203.2-58.4 0-113.6-24.8-152-68.8-32.8-36.8-51.2-84.8-51.2-134.4v-120.8c0-68 33.6-128.8 85.6-165.6-124.8-21.6-243.2-73.6-248.8-76-33.6-13.6-59.2-52-59.2-88v-145.6h0.8c4.8-37.6 36.8-65.6 75.2-65.6h660.8c32.8 0 62.4 21.6 73.6 53.6l1.6 5.6v152c1.6 36.8-24 74.4-56.8 88m-640 83.2c40 12.8 59.2 20 59.2 20s26.4 11.2 19.2 34.4c-16 30.4-28 54.4-28 144.8V650.4s7.2 56.8 28.8 62.4c1.6 1.6 2.4 4.8 1.6 8-5.6 13.6-19.2 22.4-33.6 22.4-84.8 0-152.8-68.8-152.8-152.8v-97.6c0-37.6 14.4-72 36.8-98.4-72-22.4-136-57.6-147.2-64C51.2 317.6 32 288 32 258.4V152c0-20 16.8-36.8 36.8-36.8 18.4 0 34.4 14.4 36 32.8 0 1.6 0.8 2.4 0.8 4v16c3.2 35.2 16 98.4 70.4 128 8 4 16.8 7.2 26.4 11.2 30.4 8.8 60.8 17.6 91.2 27.2"  horiz-adv-x="1024" />

    
    <glyph glyph-name="headlines" unicode="&#59024;" d="M912 64H112V704h800v-640m0 720H112C68 784 32 748 32 704v-640c0-44 36-80 80-80h800c44 0 80 36 80 80V704c0 44-36 80-80 80M232 304h160c22.4 0 40 17.6 40 40s-17.6 40-40 40H232c-22.4 0-40-17.6-40-40s17.6-40 40-40m320-80H232c-22.4 0-40-17.6-40-40s17.6-40 40-40h320c22.4 0 40 17.6 40 40s-17.6 40-40 40m-40 400v-320h320V624H512z m240-240H592V544h160v-160z"  horiz-adv-x="1024" />

    
    <glyph glyph-name="headlines_fill" unicode="&#59025;" d="M832 384H592V624h240v-240z m-400-40c0-22.4-17.6-40-40-40H232c-22.4 0-40 17.6-40 40s17.6 40 40 40h160c10.4 0 20-4 27.2-11.2 8-7.2 12.8-17.6 12.8-28.8z m160-160c0-22.4-17.6-40-40-40H232c-22.4 0-40 17.6-40 40s17.6 40 40 40h320c10.4 0 20-4 27.2-11.2 8-7.2 12.8-17.6 12.8-28.8z m320 600H112C68 784 32 748 32 704v-640c0-10.4 2.4-20 5.6-28.8 0-0.8 0.8-1.6 0.8-2.4 0.8-2.4 2.4-4 3.2-6.4 1.6-2.4 2.4-4.8 4-7.2 0.8-1.6 1.6-2.4 2.4-3.2 2.4-3.2 4.8-6.4 7.2-8.8 1.6-1.6 2.4-2.4 4-3.2 2.4-2.4 4.8-4.8 8-6.4 0.8-0.8 1.6-0.8 1.6-0.8 4-2.4 7.2-4.8 12-6.4 4-1.6 8-3.2 12.8-4 0.8 0 1.6-0.8 2.4-0.8 5.6-0.8 10.4-1.6 16-1.6h800c44 0 80 36 80 80V704c0 44-36 80-80 80z"  horiz-adv-x="1024" />

    
    <glyph glyph-name="homepage_fill" unicode="&#59026;" d="M672.8 9.6H244 352V158.4v3.2c1.6 87.2 72.8 157.6 160 157.6S670.4 248 672 161.6v-3.2c0.8 0 0.8-148.8 0.8-148.8z m300.8 535.2L872 611.2v128c0 22.4-17.6 40-40 40s-40-17.6-40-40v-76L534.4 832.8c-7.2 4-14.4 6.4-22.4 5.6-8 0-15.2-1.6-22.4-5.6l-439.2-288c-18.4-12-24-36.8-11.2-55.2 12-18.4 36.8-24 55.2-11.2l18.4 12v-492c0-37.6 33.6-68 76-68h648.8c41.6 0 76 30.4 76 68V488.8l17.6-11.2c18.4-12 43.2-7.2 55.2 11.2 11.2 19.2 5.6 44-12.8 56z"  horiz-adv-x="1024" />

    
    <glyph glyph-name="homepage" unicode="&#59027;" d="M832.8 9.6h-160V158.4c0 88.8-72 160-160 160s-160-72-160-160v-148.8h-160V541.6l320 209.6 320.8-210.4v-531.2z m-240 0h-160V158.4c0 44 36 80 80 80s80-36 80-80v-148.8z m380.8 535.2L872 611.2v128c0 22.4-17.6 40-40 40s-40-17.6-40-40v-76L534.4 832.8c-7.2 4-14.4 6.4-22.4 5.6-8 0-15.2-1.6-22.4-5.6l-439.2-288c-18.4-12-24-36.8-11.2-55.2 12-18.4 36.8-24 55.2-11.2l18.4 12v-492c0-37.6 34.4-68 76-68h648.8c41.6 0 76 30.4 76 68V488.8l17.6-11.2c18.4-12 43.2-7.2 55.2 11.2 11.2 19.2 5.6 44-12.8 56z"  horiz-adv-x="1024" />

    
    <glyph glyph-name="integral_fill" unicode="&#59028;" d="M984 580.8l-72 178.4c-3.2 7.2-6.4 13.6-11.2 19.2v3.2h-2.4c-19.2 24.8-50.4 41.6-81.6 41.6H206.4c-30.4 0-61.6-16.8-81.6-41.6h-2.4v-3.2c-4.8-5.6-8-12.8-11.2-19.2l-72-179.2C24.8 544.8 32 496 56 466.4l67.2-83.2L206.4 280l248-307.2c14.4-18.4 36-28.8 57.6-28.8s43.2 10.4 57.6 28.8l248 307.2 83.2 104 67.2 83.2c24 29.6 31.2 76.8 16 113.6M512 357.6L684 544l68-60L512 224 272 484l68 60L512 357.6z"  horiz-adv-x="1024" />

    
    <glyph glyph-name="integral" unicode="&#59029;" d="M984.8 580.8L912 759.2c-15.2 36.8-56 64.8-95.2 64.8H206.4c-39.2 0-80-28-95.2-64.8l-72-179.2C24.8 544.8 32 496 56 466.4l398.4-493.6c14.4-18.4 36-28.8 57.6-28.8s43.2 10.4 57.6 28.8L968 466.4c24 30.4 31.2 77.6 16.8 114.4m-80-60.8L512 32.8 119.2 519.2c-4.8 5.6-7.2 21.6-4 28.8l72 179.2c2.4 5.6 12.8 12.8 19.2 12.8h610.4c6.4 0 16.8-7.2 19.2-12.8l72-178.4c4-8 1.6-23.2-3.2-28.8M512 357.6L684 544l68-60L512 224 272 484l68 60L512 357.6z"  horiz-adv-x="1024" />

    
    <glyph glyph-name="interactive_fill" unicode="&#59030;" d="M712 504c-32.8 0-60 27.2-60 60S678.4 624 712 624c32.8 0 60-27.2 60-60S744.8 504 712 504m-200 0c-32.8 0-60 27.2-60 60S479.2 624 512 624s60-27.2 60-60S544.8 504 512 504m453.6 320c-10.4 24-33.6 40-60 40H318.4c-26.4 0-49.6-16-60-40-4-8.8-6.4-19.2-6.4-28.8V624h-200 66.4c-36.8 0-66.4-31.2-66.4-68.8v-471.2c0-38.4 30.4-68.8 67.2-68.8h76c1.6 0 4-1.6 6.4-2.4v-57.6c0-3.2 0.8-6.4 1.6-10.4 1.6-4.8 3.2-9.6 6.4-14.4 12.8-16.8 31.2-26.4 51.2-26.4 18.4 0 36 8.8 48.8 23.2L328-56l56 53.6c2.4 2.4 5.6 7.2 8 10.4 3.2 3.2 7.2 5.6 11.2 6.4h302.4c19.2 0 36 8.8 48.8 21.6l-0.8 0.8h0.8l-36 34.4-24.8 23.2h-0.8L593.6 188H332c-144 1.6-147.2 118.4-147.2 118.4V580c0 1.6 0.8 2.4 0.8 4s-0.8 2.4-0.8 4c-2.4 20-19.2 35.2-39.2 36h106.4v-300.8c0-6.4 1.6-12.8 3.2-19.2 8-28.8 33.6-49.6 64-49.6h302.4c4-0.8 8-3.2 11.2-6.4 2.4-4 4.8-7.2 8-10.4l73.6-70.4c12-15.2 29.6-23.2 48-23.2 3.2 0 6.4 0.8 9.6 0.8 16.8 2.4 31.2 11.2 41.6 24.8 5.6 7.2 8 15.2 8 24v57.6c2.4 1.6 4 2.4 6.4 2.4h76.8c30.4 0 56 21.6 64 49.6 1.6 6.4 3.2 12.8 3.2 19.2V795.2c0 10.4-2.4 20-6.4 28.8"  horiz-adv-x="1024" />

    
    <glyph glyph-name="interactive" unicode="&#59031;" d="M732 123.2c-18.4 0-33.6-12.8-38.4-29.6H403.2c-29.6 0-61.6-17.6-77.6-42.4l-43.2-40.8v16c0 6.4-1.6 12.8-4.8 18.4-15.2 28.8-49.6 48.8-82.4 48.8h-63.2V544h13.6c22.4 0 40 17.6 40 40s-17.6 40-40 40h-26.4c-36.8 0-66.4-31.2-66.4-69.6v-471.2c0-38.4 29.6-69.6 67.2-69.6h76c2.4-0.8 4.8-1.6 6.4-2.4v-57.6c0-8.8 3.2-17.6 8-24 12.8-16.8 31.2-26.4 51.2-25.6 18.4 0 36 8 48.8 23.2l73.6 70.4c2.4 2.4 5.6 7.2 8 10.4 3.2 3.2 7.2 5.6 11.2 6.4h302.4c24.8 0 48 14.4 59.2 37.6 4.8 6.4 7.2 15.2 7.2 23.2v8.8c0 21.6-17.6 39.2-40 39.2m160 211.2h-63.2c-20 0-40-8.8-56.8-20.8-4-3.2-8-5.6-11.2-8.8-5.6-5.6-10.4-12-14.4-19.2-3.2-5.6-4.8-12-4.8-18.4v-16l-43.2 40.8c-2.4 4-6.4 8-10.4 12-17.6 18.4-42.4 30.4-67.2 30.4H332V784h560v-449.6zM965.6 824c-10.4 23.2-33.6 40-60 40H318.4c-26.4 0-49.6-16.8-60-40-4-8.8-6.4-19.2-6.4-29.6v-471.2c0-6.4 1.6-12.8 3.2-19.2 8-28.8 33.6-49.6 64-49.6h302.4c4-0.8 8-3.2 11.2-6.4 2.4-4 4.8-7.2 8-10.4l73.6-70.4c12-15.2 29.6-23.2 48-23.2 20 0 38.4 9.6 51.2 25.6 5.6 7.2 8 15.2 8 24v57.6c2.4 1.6 4 2.4 6.4 2.4h76c30.4 0 56 20.8 64 49.6 1.6 6.4 3.2 12.8 3.2 19.2v472c0.8 10.4-1.6 20.8-5.6 29.6zM512 624c-32.8 0-60-27.2-60-60S479.2 504 512 504s60 27.2 60 60S544.8 624 512 624m200 0c-32.8 0-60-27.2-60-60S679.2 504 712 504s60 27.2 60 60S744.8 624 712 624"  horiz-adv-x="1024" />

    
    <glyph glyph-name="label_fill" unicode="&#59032;" d="M514.4 560.8c0 80.8 65.6 146.4 146.4 146.4s146.4-65.6 146.4-146.4-65.6-146.4-146.4-146.4S514.4 480 514.4 560.8m472 214.4c0 45.6-37.6 83.2-81.6 83.2-1.6 0-146.4 5.6-255.2 5.6-125.6 0-136.8-6.4-150.4-20L305.6 650.4 56 400.8c-32-32-32-85.6 0.8-118.4l353.6-353.6c16-16 36.8-24.8 59.2-24.8 22.4 0 43.2 8.8 59.2 24l276.8 276.8 166.4 166.4c14.4 15.2 28 28.8 14.4 404"  horiz-adv-x="1024" />

    
    <glyph glyph-name="label" unicode="&#59033;" d="M904.8 423.2l-435.2-435.2-354.4 354.4 435.2 435.2c10.4 0.8 36.8 3.2 99.2 3.2 107.2 0 250.4-5.6 252.8-6.4 5.6-146.4 8-310.4 2.4-351.2m81.6 352c0 45.6-37.6 83.2-81.6 83.2-1.6 0-146.4 5.6-255.2 5.6-125.6 0-136.8-6.4-150.4-20L56 400.8c-32-32-32-85.6 0.8-118.4l353.6-353.6c16-16 36.8-24.8 59.2-24.8 22.4 0 43.2 8.8 59.2 24l443.2 443.2c14.4 15.2 28 28.8 14.4 404M660 497.6c-34.4 0-62.4 28-62.4 62.4s28 62.4 62.4 62.4 62.4-28 62.4-62.4-28-62.4-62.4-62.4m0 208.8c-80.8 0-146.4-65.6-146.4-146.4s65.6-146.4 146.4-146.4 146.4 65.6 146.4 146.4-65.6 146.4-146.4 146.4"  horiz-adv-x="1024" />

    
    <glyph glyph-name="int" unicode="&#59034;" d="M182.4 336.8c17.6 1.6 30.4 8.8 43.2 22.4 32.8 36.8 68.8 52.8 105.6 47.2 30.4-4.8 55.2-22.4 72.8-36 5.6-4.8 11.2-8 16-11.2 19.2-10.4 33.6-10.4 40.8-4.8 4.8 4 4.8 10.4 3.2 15.2-4 13.6-34.4 76-50.4 104.8-15.2 27.2-16.8 59.2-4 84.8C426.4 592 463.2 610.4 520 616h1.6c13.6 0.8 36.8 4 44 15.2 7.2 12 1.6 39.2-14.4 72-13.6 21.6-16.8 46.4-10.4 71.2 2.4 8.8 5.6 17.6 11.2 26.4-12.8 1.6-26.4 1.6-39.2 1.6-56.8 0-112-11.2-163.2-33.6C299.2 749.6 254.4 719.2 216 680c-38.4-38.4-68.8-84-90.4-133.6-21.6-52-33.6-106.4-33.6-163.2 0-11.2 0.8-20.8 1.6-31.2 36-12.8 66.4-17.6 88.8-15.2z m628-180c-12-20.8-26.4-45.6-52.8-62.4-28.8-17.6-66.4-21.6-117.6-13.6-56.8 9.6-107.2-2.4-129.6-30.4-20.8-26.4-12.8-64.8-1.6-94.4h3.2c56.8 0 112 11.2 163.2 33.6 49.6 20.8 94.4 51.2 133.6 90.4 38.4 38.4 68.8 84 90.4 133.6 1.6 2.4 1.6 4.8 3.2 7.2-24-2.4-43.2-8-56-18.4-16-12-25.6-28-36-45.6z m88.8 390.4c-20.8 49.6-51.2 94.4-90.4 133.6-38.4 38.4-84 68.8-133.6 90.4-18.4 8-36.8 14.4-56 19.2-10.4-8-17.6-18.4-20.8-29.6-2.4-8.8-1.6-17.6 4-25.6l0.8-1.6 0.8-1.6c27.2-54.4 31.2-98.4 12.8-129.6-16-27.2-47.2-43.2-92-44.8-33.6-3.2-56-12-62.4-24.8-4.8-8-1.6-20 2.4-27.2 13.6-24 49.6-95.2 56-117.6 8.8-30.4 0-60-23.2-78.4-27.2-21.6-68.8-22.4-107.2-0.8-8 4-14.4 9.6-22.4 15.2-36.8 27.2-59.2 40-97.6-3.2-21.6-24-48-38.4-80-42.4-6.4-0.8-12.8-1.6-20-1.6-20 0-42.4 3.2-66.4 10.4 4.8-22.4 12-44 21.6-65.6 20.8-49.6 51.2-94.4 90.4-133.6 38.4-38.4 84-68.8 133.6-90.4 30.4-13.6 63.2-22.4 96-27.2-4.8 19.2-8 36.8-7.2 54.4 1.6 27.2 9.6 51.2 25.6 72 18.4 24 47.2 40.8 82.4 49.6 31.2 8 67.2 8 104 2.4 36-5.6 61.6-4 76.8 4.8 13.6 8 21.6 22.4 32 40 22.4 40 53.6 93.6 163.2 95.2 7.2 30.4 11.2 62.4 11.2 95.2-1.6 56.8-12.8 112-34.4 163.2zM512 864C247.2 864 32 648.8 32 384s215.2-480 480-480 480 215.2 480 480S776.8 864 512 864z m0-880c-220.8 0-400 179.2-400 400s179.2 400 400 400 400-179.2 400-400-179.2-400-400-400z"  horiz-adv-x="1024" />

    
    <glyph glyph-name="like" unicode="&#59035;" d="M868.8 403.2l-355.2-367.2-356 364.8C128 437.6 112 483.2 112 529.6c0 111.2 89.6 202.4 200 202.4 67.2 0 129.6-33.6 166.4-90.4l33.6-50.4 33.6 50.4c36.8 56 99.2 90.4 166.4 90.4 110.4 0 200-90.4 200-202.4 0-47.2-16-92.8-43.2-126.4M712 812c-75.2 0-147.2-30.4-200-84.8-52.8 54.4-124.8 84.8-200 84.8-154.4 0-280-126.4-280-282.4 0-65.6 22.4-128.8 66.4-181.6l357.6-368c14.4-15.2 35.2-24 56-24 21.6 0 41.6 8.8 56 24l360 370.4c41.6 50.4 64 113.6 64 179.2 0 155.2-125.6 282.4-280 282.4"  horiz-adv-x="1024" />

    
    <glyph glyph-name="like_fill" unicode="&#59036;" d="M712 812c-75.2 0-147.2-30.4-200-84.8-52.8 54.4-124.8 84.8-200 84.8-154.4 0-280-126.4-280-282.4 0-65.6 22.4-128.8 66.4-181.6l357.6-368c29.6-31.2 79.2-32 110.4-2.4l2.4 2.4 360 370.4c41.6 50.4 64 114.4 64 179.2-0.8 156-126.4 282.4-280.8 282.4"  horiz-adv-x="1024" />

    
    <glyph glyph-name="live" unicode="&#59037;" d="M470.4 228v136l94.4-66.4-94.4-69.6z m189.6 104.8l-207.2 144c-19.2 12.8-44.8 8.8-57.6-10.4-7.2-10.4-8.8-22.4-5.6-34.4-0.8-3.2-1.6-6.4-1.6-9.6v-248.8c0-4.8 1.6-9.6 3.2-14.4-4.8-12.8-2.4-26.4 4.8-37.6 13.6-18.4 39.2-22.4 57.6-8.8l207.2 152.8c18.4 13.6 22.4 40 8.8 58.4-2.4 2.4-5.6 5.6-9.6 8.8z m-521.6-345.6V608.8h746.4v-622.4H138.4z m747.2 704.8H640.8l52 113.6c9.6 20.8 0.8 45.6-20.8 55.2-20.8 9.6-45.6 0.8-55.2-20.8l-68-148H444L376 840c-9.6 20.8-34.4 29.6-55.2 20.8-20.8-9.6-29.6-34.4-20.8-55.2L352 692H138.4C92.8 692 56 654.4 56 608.8v-622.4c0-45.6 36.8-83.2 82.4-83.2h747.2c45.6 0 82.4 37.6 82.4 83.2V608.8c0 45.6-36.8 83.2-82.4 83.2z"  horiz-adv-x="1024" />

    
    <glyph glyph-name="live_fill" unicode="&#59038;" d="M660.8 264.8l-207.2-152c-18.4-13.6-44-9.6-57.6 8.8-8 11.2-9.6 24.8-4.8 37.6-1.6 4.8-3.2 9.6-3.2 14.4V422.4c0 3.2 0.8 6.4 2.4 9.6-3.2 12-1.6 24 5.6 34.4 12.8 18.4 39.2 23.2 57.6 10.4l207.2-144.8c18.4-12.8 23.2-39.2 10.4-57.6-3.2-3.2-6.4-6.4-10.4-9.6m224.8 427.2H640.8l52 113.6c9.6 20.8 0.8 45.6-20.8 55.2-20.8 9.6-45.6 0-55.2-20.8l-68-148H444L376 840c-9.6 20.8-34.4 29.6-55.2 20.8-20.8-9.6-29.6-34.4-20.8-55.2L352 692.8H138.4C92.8 692 56 654.4 56 608.8v-622.4c0-45.6 36.8-83.2 82.4-83.2h747.2c45.6 0 82.4 37.6 82.4 83.2V608.8c0 45.6-36.8 83.2-82.4 83.2"  horiz-adv-x="1024" />

    
    <glyph glyph-name="lock_fill" unicode="&#59039;" d="M358.4 617.6c0 89.6 72.8 162.4 162.4 162.4 89.6 0 162.4-72.8 162.4-162.4V488H358.4V617.6z m195.2-504.8c0-23.2-18.4-41.6-41.6-41.6-23.2 0-41.6 18.4-41.6 41.6V280c0 23.2 18.4 41.6 41.6 41.6 23.2 0 41.6-18.4 41.6-41.6v-167.2zM888 488H766.4V617.6C766.4 753.6 656.8 864 520.8 864 385.6 864 275.2 753.6 275.2 617.6V488H136c-46.4 0-83.2-37.6-83.2-84v-416.8c0-46.4 36.8-83.2 83.2-83.2h752c46.4 0 83.2 37.6 83.2 83.2V404.8c0 45.6-36.8 83.2-83.2 83.2z"  horiz-adv-x="1024" />

    
    <glyph glyph-name="lock" unicode="&#59040;" d="M136-12.8V404.8h752v-417.6H136z m222.4 630.4c0 89.6 72.8 162.4 162.4 162.4 89.6 0 162.4-72.8 162.4-162.4V488H358.4V617.6zM888 488H766.4V617.6C766.4 753.6 656.8 864 520.8 864 385.6 864 275.2 753.6 275.2 617.6V488H136c-46.4 0-83.2-37.6-83.2-84v-416.8c0-46.4 36.8-83.2 83.2-83.2h752c46.4 0 83.2 37.6 83.2 83.2V404.8c0 45.6-36.8 83.2-83.2 83.2zM512 321.6c-23.2 0-41.6-18.4-41.6-41.6v-167.2c0-23.2 18.4-41.6 41.6-41.6 23.2 0 41.6 18.4 41.6 41.6V280c0 22.4-18.4 41.6-41.6 41.6"  horiz-adv-x="1024" />

    
    <glyph glyph-name="mail" unicode="&#59041;" d="M912 64H112V551.2l378.4-240.8c12.8-8 29.6-8 43.2 0L912 551.2V64zM112 704h800v-58.4L512 391.2 112 645.6V704z m800 80H112C68 784 32 748.8 32 704v-640c0-44 36-80 80-80h800c44 0 80 36 80 80V704c0 44-36 80-80 80z"  horiz-adv-x="1024" />

    
    <glyph glyph-name="mail_fill" unicode="&#59042;" d="M512 304c-8 0-15.2 2.4-21.6 6.4L32 602.4V64c0-44 36-80 80-80h800c44 0 80 36 80 80V601.6L533.6 310.4c-6.4-4-13.6-6.4-21.6-6.4m400 480H112C68 784 32 748 32 704v-6.4l480-306.4L992 696v8c0 44-36 80-80 80"  horiz-adv-x="1024" />

    
    <glyph glyph-name="manage" unicode="&#59043;" d="M114.4 482.4v248h248v-248h-248z m248 330.4h-248C68.8 812.8 32 776 32 730.4v-248C32 436.8 68.8 400 114.4 400h248c45.6 0 82.4 36.8 82.4 82.4v248c0 45.6-36.8 82.4-82.4 82.4z m-248-826.4v248h248v-248h-248z m248 330.4h-248C68.8 316.8 32 280 32 234.4v-248c0-45.6 36.8-82.4 82.4-82.4h248c45.6 0 82.4 36.8 82.4 82.4v248c0 45.6-36.8 82.4-82.4 82.4z m372 114.4L559.2 606.4l175.2 175.2 175.2-175.2-175.2-175.2zM968 664.8L792.8 840c-32 32-84 32-116.8 0L500.8 664.8c-15.2-15.2-24-36-24-58.4 0-21.6 8.8-43.2 24-58.4l175.2-175.2c32-32 84.8-32 116.8 0L968 548c32 32 32 84 0 116.8z m-357.6-678.4v248h248v-248h-248z m248 330.4h-248C564.8 316.8 528 280 528 234.4v-248c0-45.6 36.8-82.4 82.4-82.4h248c45.6 0 82.4 36.8 82.4 82.4v248c0 45.6-36.8 82.4-82.4 82.4z"  horiz-adv-x="1024" />

    
    <glyph glyph-name="manage_fill" unicode="&#59044;" d="M362.4 812.8h-248C68.8 812.8 32 776 32 730.4v-248C32 436.8 68.8 400 114.4 400h248c45.6 0 82.4 36.8 82.4 82.4v248c0 45.6-36.8 82.4-82.4 82.4M968 664.8L792.8 840c-32 32-84.8 32-116.8 0l-24-24-151.2-151.2c-15.2-15.2-24-36-24-58.4 0-21.6 8.8-43.2 24-58.4l24-24 127.2-127.2 24-24c32-32 84.8-32 116.8 0L944 524l24 24c32 32 32 84 0 116.8M362.4 316.8h-248C68.8 316.8 32 280 32 234.4v-248c0-45.6 36.8-82.4 82.4-82.4h248c45.6 0 82.4 36.8 82.4 82.4v248c0 45.6-36.8 82.4-82.4 82.4m496 0h-248C564.8 316.8 528 280 528 234.4v-248c0-45.6 36.8-82.4 82.4-82.4h248c45.6 0 82.4 36.8 82.4 82.4v248c0 45.6-36.8 82.4-82.4 82.4"  horiz-adv-x="1024" />

    
    <glyph glyph-name="map_fill" unicode="&#59045;" d="M349.6 496.8c0 90.4 72.8 163.2 163.2 163.2s163.2-72.8 163.2-163.2-72.8-163.2-163.2-163.2-163.2 73.6-163.2 163.2M512.8 864C309.6 864 145.6 699.2 145.6 496.8c0-103.2 82.4-248 160.8-367.2 46.4-68 96-135.2 148-198.4 14.4-16.8 35.2-28 56.8-28 22.4 0 43.2 10.4 56.8 28 52.8 64 101.6 130.4 148.8 198.4 80 118.4 160.8 264 160.8 367.2C879.2 699.2 715.2 864 512.8 864"  horiz-adv-x="1024" />

    
    <glyph glyph-name="map" unicode="&#59046;" d="M512-8.8c-84.8 102.4-284.8 372.8-284.8 506.4 0 156.8 128 284.8 284.8 284.8s284.8-128 284.8-284.8c0-132.8-200-404-284.8-506.4M512 864C310.4 864 144.8 699.2 144.8 496.8c0-188.8 276.8-526.4 310.4-564.8 14.4-16.8 35.2-28 56.8-28s43.2 10.4 56.8 28c32 38.4 310.4 376 310.4 564.8C879.2 699.2 714.4 864 512 864m0-448c-44.8 0-82.4 36.8-82.4 82.4S467.2 580 512 580s82.4-36.8 82.4-82.4S556.8 416 512 416m0 244c-90.4 0-163.2-72.8-163.2-163.2S422.4 333.6 512 333.6s163.2 72.8 163.2 163.2S602.4 660 512 660"  horiz-adv-x="1024" />

    
    <glyph glyph-name="message_fill" unicode="&#59047;" d="M752 384c-36 0-65.6 29.6-65.6 65.6s29.6 65.6 65.6 65.6c36 0 65.6-29.6 65.6-65.6S788 384 752 384m-240 0c-36 0-65.6 29.6-65.6 65.6s29.6 65.6 65.6 65.6 65.6-29.6 65.6-65.6S548 384 512 384m-240 0c-36-0.8-66.4 27.2-67.2 64-0.8 36 27.2 66.4 64 67.2h3.2c36-0.8 64.8-31.2 64-67.2-0.8-35.2-28.8-63.2-64-64m640 480H112C68 864 32 826.4 32 780.8v-643.2c0-46.4 36-83.2 80-83.2h258.4c8 0 21.6-8 24.8-14.4l52-98.4 4-6.4c15.2-20 37.6-31.2 60.8-31.2 23.2 0 45.6 11.2 60.8 31.2l56 104c3.2 6.4 16 14.4 24.8 14.4H912c44 0 80 37.6 80 83.2V780.8C992 826.4 956 864 912 864"  horiz-adv-x="1024" />

    
    </font>
</defs>
</svg>
